<svg id="Icon_5" data-name="Icon 5" xmlns="http://www.w3.org/2000/svg" width="60.353" height="49.485" viewBox="0 0 60.353 49.485">
  <g id="Group_327" data-name="Group 327" transform="translate(0 0)">
    <path id="Path_373" data-name="Path 373" d="M8.744,29.453a5.6,5.6,0,1,0-5.6-5.6A5.61,5.61,0,0,0,8.744,29.453Z" transform="translate(-1.414 -12.764)" fill="#26cec0"/>
    <path id="Path_374" data-name="Path 374" d="M40.636,29.457a9.7,9.7,0,1,0-9.7-9.7A9.71,9.71,0,0,0,40.636,29.457Z" transform="translate(-10.587 -10.061)" fill="#0f75bc"/>
    <path id="Path_375" data-name="Path 375" d="M47.587,40.481a13.409,13.409,0,0,1-16.382.06,7.339,7.339,0,0,0-4.146,6.67V65.379c1.838,1.226,6.861,4.207,12.3,4.207,7.213,0,11.2-2.884,12.485-4.021V47.21A7.509,7.509,0,0,0,47.587,40.481Z" transform="translate(-9.306 -20.1)" fill="#0f75bc"/>
    <path id="Path_376" data-name="Path 376" d="M15.215,36.437A9.827,9.827,0,0,1,2.4,38.043,3.828,3.828,0,0,0,.561,41.457V52.45c3.079,2.407,10.368,3.186,15.6-.093V44.848a12.4,12.4,0,0,1,1.256-5.5A7.4,7.4,0,0,0,15.215,36.437Z" transform="translate(-0.561 -18.766)" fill="#26cec0"/>
    <path id="Path_377" data-name="Path 377" d="M76.942,29.453a5.6,5.6,0,1,1,5.6-5.6A5.61,5.61,0,0,1,76.942,29.453Z" transform="translate(-23.918 -12.764)" fill="#26cec0"/>
    <path id="Path_378" data-name="Path 378" d="M67.685,36.437A9.829,9.829,0,0,0,80.5,38.043a3.827,3.827,0,0,1,1.842,3.414V52.45c-3.078,2.407-10.367,3.186-15.6-.093V44.848a12.4,12.4,0,0,0-1.256-5.5A7.4,7.4,0,0,1,67.685,36.437Z" transform="translate(-21.987 -18.766)" fill="#26cec0"/>
  </g>
</svg>
