<svg xmlns="http://www.w3.org/2000/svg" width="647.1" height="456.069" viewBox="0 0 647.1 456.069">
  <g id="Illustration" transform="translate(-0.021 2.577)">
    <g id="Graphics" transform="translate(0.021 -2.577)">
      <g id="Layer_6" data-name="Layer 6" transform="translate(0 0)">
        <rect id="Rectangle_146" data-name="Rectangle 146" width="44.86" height="55" transform="translate(49.487 113.222)" fill="#199b90"/>
        <rect id="Rectangle_147" data-name="Rectangle 147" width="26.811" height="32.867" transform="translate(58.511 124.289)" fill="#a5c8e0"/>
        <rect id="Rectangle_148" data-name="Rectangle 148" width="17.193" height="21.088" transform="translate(63.308 130.178)" fill="#a5c8e0"/>
        <rect id="Rectangle_149" data-name="Rectangle 149" width="44.86" height="55" transform="translate(158.086 113.222)" fill="#199b90"/>
        <rect id="Rectangle_150" data-name="Rectangle 150" width="26.811" height="32.867" transform="translate(167.11 124.289)" fill="#a5c8e0"/>
        <rect id="Rectangle_151" data-name="Rectangle 151" width="17.193" height="21.088" transform="translate(171.907 130.178)" fill="#a5c8e0"/>
        <rect id="Rectangle_152" data-name="Rectangle 152" width="44.86" height="55" transform="translate(103.774 113.222)" fill="#a5c8e0"/>
        <rect id="Rectangle_153" data-name="Rectangle 153" width="26.811" height="32.867" transform="translate(112.799 124.289)" fill="#199b90"/>
        <rect id="Rectangle_154" data-name="Rectangle 154" width="17.193" height="21.088" transform="translate(117.619 130.178)" fill="#f0f1fe"/>
        <rect id="Rectangle_155" data-name="Rectangle 155" width="153.648" height="7.861" transform="translate(492.715 173.684)" fill="#138177"/>
        <rect id="Rectangle_156" data-name="Rectangle 156" width="153.648" height="3.325" transform="translate(492.715 173.684)" fill="#199b90"/>
        <rect id="Rectangle_157" data-name="Rectangle 157" width="8.62" height="5.509" transform="translate(511.357 180.856)" fill="#c1c6fb"/>
        <rect id="Rectangle_158" data-name="Rectangle 158" width="8.62" height="5.509" transform="translate(617.89 180.856)" fill="#138177"/>
        <rect id="Rectangle_159" data-name="Rectangle 159" width="16.362" height="52.554" transform="translate(615.586 121.106)" fill="#0f75bc"/>
        <rect id="Rectangle_160" data-name="Rectangle 160" width="16.362" height="2.612" transform="translate(615.586 128.35)" fill="#fff"/>
        <rect id="Rectangle_161" data-name="Rectangle 161" width="16.362" height="2.612" transform="translate(615.586 159.127)" fill="#fff"/>
        <rect id="Rectangle_162" data-name="Rectangle 162" width="16.362" height="2.612" transform="translate(615.586 163.164)" fill="#fff"/>
        <rect id="Rectangle_163" data-name="Rectangle 163" width="16.362" height="2.612" transform="translate(615.586 132.79)" fill="#fff"/>
        <rect id="Rectangle_164" data-name="Rectangle 164" width="10.71" height="54.905" transform="translate(591.506 118.779)" fill="#138177"/>
        <rect id="Rectangle_165" data-name="Rectangle 165" width="10.71" height="2.731" transform="translate(591.506 126.355)" fill="#a5c8e0"/>
        <rect id="Rectangle_166" data-name="Rectangle 166" width="10.71" height="2.731" transform="translate(591.506 158.485)" fill="#a5c8e0"/>
        <rect id="Rectangle_167" data-name="Rectangle 167" width="10.71" height="2.731" transform="translate(591.506 162.689)" fill="#a5c8e0"/>
        <rect id="Rectangle_168" data-name="Rectangle 168" width="10.71" height="2.731" transform="translate(591.506 130.986)" fill="#a5c8e0"/>
        <rect id="Rectangle_169" data-name="Rectangle 169" width="6.982" height="54.905" transform="translate(609.032 118.779)" fill="#a5c8e0"/>
        <rect id="Rectangle_170" data-name="Rectangle 170" width="6.982" height="2.731" transform="translate(609.032 126.355)" fill="#fff"/>
        <rect id="Rectangle_171" data-name="Rectangle 171" width="6.982" height="2.731" transform="translate(609.032 158.485)" fill="#fff"/>
        <rect id="Rectangle_172" data-name="Rectangle 172" width="6.982" height="2.731" transform="translate(609.032 162.689)" fill="#fff"/>
        <rect id="Rectangle_173" data-name="Rectangle 173" width="6.982" height="2.731" transform="translate(609.032 130.986)" fill="#fff"/>
        <rect id="Rectangle_174" data-name="Rectangle 174" width="7.077" height="44.598" transform="translate(601.813 129.086)" fill="#0f75bc"/>
        <rect id="Rectangle_175" data-name="Rectangle 175" width="7.077" height="2.209" transform="translate(601.813 135.213)" fill="#f0f1fe"/>
        <rect id="Rectangle_176" data-name="Rectangle 176" width="7.077" height="2.209" transform="translate(601.813 161.335)" fill="#f0f1fe"/>
        <rect id="Rectangle_177" data-name="Rectangle 177" width="7.077" height="2.209" transform="translate(601.813 164.755)" fill="#f0f1fe"/>
        <rect id="Rectangle_178" data-name="Rectangle 178" width="7.077" height="2.209" transform="translate(601.813 138.989)" fill="#f0f1fe"/>
        <rect id="Rectangle_179" data-name="Rectangle 179" width="2.422" height="3.562" transform="translate(515.87 170.241)" fill="#b2b8fa"/>
        <rect id="Rectangle_180" data-name="Rectangle 180" width="2.422" height="3.562" transform="translate(563.246 170.241)" fill="#b2b8fa"/>
        <rect id="Rectangle_181" data-name="Rectangle 181" width="57.731" height="26.265" transform="translate(511.666 144.854)" fill="#0f75bc"/>
        <rect id="Rectangle_182" data-name="Rectangle 182" width="21.8" height="19.996" transform="translate(514.848 148.084)" fill="#e0e3fd"/>
        <rect id="Rectangle_183" data-name="Rectangle 183" width="7.552" height="6.934" transform="translate(521.973 154.615)" fill="#f0f1fe"/>
        <rect id="Rectangle_184" data-name="Rectangle 184" width="0.451" height="2.09" transform="translate(525.297 149.105)" fill="#b2b8fa"/>
        <rect id="Rectangle_185" data-name="Rectangle 185" width="0.451" height="2.09" transform="translate(529.885 150.067) rotate(30)" fill="#b2b8fa"/>
        <rect id="Rectangle_186" data-name="Rectangle 186" width="0.451" height="2.09" transform="matrix(0.499, 0.867, -0.867, 0.499, 533.332, 153.189)" fill="#b2b8fa"/>
        <rect id="Rectangle_187" data-name="Rectangle 187" width="0.451" height="2.09" transform="translate(534.75 157.672) rotate(90.12)" fill="#b2b8fa"/>
        <rect id="Rectangle_188" data-name="Rectangle 188" width="0.449" height="2.079" transform="translate(535.618 160.005) rotate(120.174)" fill="#b2b8fa"/>
        <rect id="Rectangle_189" data-name="Rectangle 189" width="0.451" height="2.09" transform="translate(530.585 165.667) rotate(150.2)" fill="#b2b8fa"/>
        <rect id="Rectangle_190" data-name="Rectangle 190" width="0.451" height="2.09" transform="translate(525.464 169.314) rotate(180)" fill="#b2b8fa"/>
        <rect id="Rectangle_191" data-name="Rectangle 191" width="0.451" height="2.09" transform="translate(521.632 166.043) rotate(-149.73)" fill="#b2b8fa"/>
        <rect id="Rectangle_192" data-name="Rectangle 192" width="0.451" height="2.09" transform="matrix(-0.496, -0.869, 0.869, -0.496, 518.19, 162.915)" fill="#b2b8fa"/>
        <rect id="Rectangle_193" data-name="Rectangle 193" width="0.451" height="2.09" transform="translate(516.741 158.474) rotate(-89.63)" fill="#b2b8fa"/>
        <rect id="Rectangle_194" data-name="Rectangle 194" width="0.451" height="2.09" transform="matrix(0.506, -0.863, 0.863, 0.506, 517.79, 153.905)" fill="#b2b8fa"/>
        <rect id="Rectangle_195" data-name="Rectangle 195" width="0.451" height="2.09" transform="matrix(0.87, -0.494, 0.494, 0.87, 520.929, 150.526)" fill="#b2b8fa"/>
        <rect id="Rectangle_196" data-name="Rectangle 196" width="5.509" height="0.974" transform="translate(525.749 157.488)" fill="#b2b8fa"/>
        <rect id="Rectangle_197" data-name="Rectangle 197" width="5.509" height="0.475" transform="translate(525.677 158.414) rotate(-90)" fill="#b2b8fa"/>
        <rect id="Rectangle_198" data-name="Rectangle 198" width="26.051" height="1.021" transform="translate(540.045 148.511)" fill="#c1c6fb"/>
        <rect id="Rectangle_199" data-name="Rectangle 199" width="26.051" height="1.021" transform="translate(540.045 151.1)" fill="#c1c6fb"/>
        <rect id="Rectangle_200" data-name="Rectangle 200" width="26.051" height="1.021" transform="translate(540.045 153.665)" fill="#c1c6fb"/>
        <rect id="Rectangle_201" data-name="Rectangle 201" width="26.051" height="1.021" transform="translate(540.045 156.253)" fill="#c1c6fb"/>
        <rect id="Rectangle_202" data-name="Rectangle 202" width="26.051" height="1.021" transform="translate(540.045 158.818)" fill="#c1c6fb"/>
        <rect id="Rectangle_203" data-name="Rectangle 203" width="26.051" height="1.021" transform="translate(540.045 161.406)" fill="#c1c6fb"/>
        <rect id="Rectangle_204" data-name="Rectangle 204" width="26.051" height="1.021" transform="translate(540.045 163.971)" fill="#c1c6fb"/>
        <rect id="Rectangle_205" data-name="Rectangle 205" width="26.051" height="1.021" transform="translate(540.045 166.536)" fill="#c1c6fb"/>
        <rect id="Rectangle_206" data-name="Rectangle 206" width="248.71" height="134.032" transform="translate(217.241 111.774)" fill="#a5c8e0"/>
        <rect id="Rectangle_207" data-name="Rectangle 207" width="260.798" height="11.304" transform="translate(211.186 238.207)" fill="#fff"/>
        <path id="Path_265" data-name="Path 265" d="M109.82,125.035l-1.14-1.5L141.072,98.96l24.816,14.795,46.783-47.282,20.8,25.434,42.96-31.347,1.092,1.52L233.142,94.472l-20.589-25.2L166.173,116.13l-24.959-14.89Z" transform="translate(149.36 89.376)" fill="#fff"/>
        <rect id="Rectangle_208" data-name="Rectangle 208" width="1.876" height="96.535" transform="translate(256.71 128.824)" fill="#fff"/>
        <rect id="Rectangle_209" data-name="Rectangle 209" width="211.973" height="1.876" transform="translate(240.775 213.604)" fill="#fff"/>
        <path id="Path_266" data-name="Path 266" d="M186.874,62.992a4.3,4.3,0,1,1-1.259-3.063,4.322,4.322,0,0,1,1.259,3.063Z" transform="translate(244.976 86.778)" fill="#fff"/>
        <path id="Path_267" data-name="Path 267" d="M159.214,66.252a4.322,4.322,0,1,1-4.322-4.322A4.322,4.322,0,0,1,159.214,66.252Z" transform="translate(206.949 91.26)" fill="#fff"/>
        <path id="Path_268" data-name="Path 268" d="M129.124,79.922A4.322,4.322,0,1,1,124.8,75.6a4.322,4.322,0,0,1,4.322,4.322Z" transform="translate(165.582 110.053)" fill="#fff"/>
        <path id="Path_269" data-name="Path 269" d="M139.624,85.612a4.3,4.3,0,1,1-1.259-3.063,4.322,4.322,0,0,1,1.259,3.063Z" transform="translate(180.017 117.875)" fill="#fff"/>
        <path id="Path_270" data-name="Path 270" d="M167.824,76.516A4.322,4.322,0,1,1,163.5,72.17,4.322,4.322,0,0,1,167.824,76.516Z" transform="translate(218.786 105.337)" fill="#fff"/>
        <path id="Path_271" data-name="Path 271" d="M222.83,110.244l35.194-8.81-7.1-15.769.166-14.2-11.3-24.1L229.574,67.118l-3.7,22.537Z" transform="translate(306.291 71.229)" fill="#ffcebd"/>
        <path id="Path_272" data-name="Path 272" d="M240.907,104.286H240L214.618,70.469l-2.8-7.433a4.916,4.916,0,0,0-4.607-3.206h-4.227L201.153,60.9,181.87,59.83h0a3.823,3.823,0,0,0,3.681,3.8l9.784.356.285,7.124A6.721,6.721,0,0,0,199.776,77l6.578,2.66,2.589,2.375,24.6,40.371a2.992,2.992,0,0,0,3.515,1.259l9.238-3.111-3.99-16.22Z" transform="translate(249.98 88.373)" fill="#ffcebd"/>
        <rect id="Rectangle_210" data-name="Rectangle 210" width="15.816" height="12.349" transform="translate(506.418 435.646) rotate(180)" fill="#ffcebd"/>
        <path id="Path_273" data-name="Path 273" d="M228.567,105.49,206.6,202.713v72.929h15.84s13.085-50.607,6.412-71.623l26.123-60.628Z" transform="translate(283.978 151.145)" fill="#0f75bc"/>
        <path id="Path_274" data-name="Path 274" d="M244.956,179.243V197.7H193.21V191.26l14.842-2.945L219.1,175.61h2.3l3.61,5.937,15.84.5,2.3-2.8Z" transform="translate(265.57 247.544)" fill="#fff"/>
        <rect id="Rectangle_211" data-name="Rectangle 211" width="1.971" height="4.346" transform="translate(481.695 426.488) rotate(-46.35)" fill="#191c3c"/>
        <rect id="Rectangle_212" data-name="Rectangle 212" width="1.971" height="3.23" transform="translate(479.558 429.367) rotate(-39.94)" fill="#191c3c"/>
        <path id="Path_275" data-name="Path 275" d="M202.956,182.13l1.354-1.449-2.066-1.971-1.354,1.425Z" transform="translate(276.128 251.806)" fill="#191c3c"/>
        <rect id="Rectangle_213" data-name="Rectangle 213" width="11.731" height="12.349" transform="translate(554.84 439.137) rotate(180)" fill="#ffcebd"/>
        <path id="Path_277" data-name="Path 277" d="M268.571,112.007l-.974,83.782c8.905,18.31-5.937,75.66-5.937,75.66H248.813l-1.734-67.657-14.249-67.847-19.521-27.4Z" transform="translate(293.203 155.338)" fill="#0f75bc"/>
        <path id="Path_278" data-name="Path 278" d="M221.11,195.307H241.6l11.8-5.486-.831-9.879-1.639,2.47-2.968.166-3.633-5.438h-9.879Z" transform="translate(303.926 249.648)" fill="#fff"/>
        <path id="Path_279" data-name="Path 279" d="M253.407,182.48v3.8l-10.876,6.1H221.11v-4.417H241.6Z" transform="translate(303.926 256.989)" fill="#191c3c"/>
        <rect id="Rectangle_214" data-name="Rectangle 214" width="6.673" height="1.971" transform="translate(536.435 430.255)" fill="#191c3c"/>
        <rect id="Rectangle_215" data-name="Rectangle 215" width="6.673" height="1.971" transform="translate(535.034 433.698)" fill="#191c3c"/>
        <rect id="Rectangle_216" data-name="Rectangle 216" width="6.673" height="1.971" transform="translate(532.802 437.166)" fill="#191c3c"/>
        <rect id="Rectangle_217" data-name="Rectangle 217" width="51.746" height="4.393" transform="translate(510.526 449.372) rotate(180)" fill="#191c3c"/>
        <path id="Path_280" data-name="Path 280" d="M248.182,65.17l-23.13,13.37a7.316,7.316,0,0,0-1.187.879L206.6,95l3.467,22.18,43.625-25.909Z" transform="translate(283.978 95.714)" fill="#fff"/>
        <path id="Path_281" data-name="Path 281" d="M282.823,91.489l-9.072,84.875H211.39l16.576-99.076L241.6,67.48,249.244,80.8,266.651,63.49Z" transform="translate(290.563 93.404)" fill="#fff"/>
        <path id="Path_282" data-name="Path 282" d="M250.586,67.105a13.868,13.868,0,0,1,1,5.676A42.2,42.2,0,0,0,252.6,82.09a23.268,23.268,0,0,0,1.852,4.251,1.354,1.354,0,0,0,.475.617,1.164,1.164,0,0,0,.57,0,3.61,3.61,0,0,0,3.135-2.446,16.1,16.1,0,0,0,.523-4.275c.19-2.375,1.544-4.75,1.876-7.124.119-.831,0-1.686.166-2.541a51.278,51.278,0,0,1,1.4-5.937c.879-3.942-.736-7.291-2.636-10.663A57.64,57.64,0,0,0,257,48.891c-1.425-2.042-3.467-1.995-5.414-3.253-1.52-.974-2.517-2.8-4.275-3.135-2.185-.38-4.393,1.829-6.436,1s-4.085-2.066-6.412-.76a7.314,7.314,0,0,1-2.375,1.235,8.146,8.146,0,0,1-1.852-.166,8.359,8.359,0,0,0-3.562.617c-1.116.332-2.375.807-2.731,1.9a13.793,13.793,0,0,1-.38,2.019,2.66,2.66,0,0,1-2.185,1.211,6.578,6.578,0,0,0-2.541.522c-1.211.689-1.544,4.275-1,5.414a3.847,3.847,0,0,0,3.728,1.734c1.449,0,2.85-.57,4.3-.665a3.918,3.918,0,0,1,3.776,1.615,4.751,4.751,0,0,1,.427,1.259c.594,2.375,1.164,4.75,1.757,7.124a12.23,12.23,0,0,0,2.755,6.079,6.721,6.721,0,0,0,6.578,1.425,8.1,8.1,0,0,0,4.94-4.75,9,9,0,0,1,1.187-2.612,1.9,1.9,0,0,1,2.541-.475A4.748,4.748,0,0,1,250.586,67.105Z" transform="translate(299.077 64.094)" fill="#5e6872"/>
        <path id="Path_283" data-name="Path 283" d="M220.246,50.4V61.772l1.472,1.5a16.481,16.481,0,0,0-2.968,9.143h2.968v5.628a8.715,8.715,0,0,0,8.715,8.715h1.092A12.159,12.159,0,0,0,243.709,74.6V69.68s4.75-2.232,4.75-6.436c0,0,.736-6.412-3.206-6.174,0,0-5.2-.237-5.438,3.966l-5.676.475V58.328a4.227,4.227,0,0,0-3.966-4.227h0l-.261-6.673S223.215,46.193,220.246,50.4Z" transform="translate(300.682 71.09)" fill="#ffcebd"/>
        <path id="Path_284" data-name="Path 284" d="M220.9,73.754c.855-.5,1.235.807,1.306,1.4s.261,1.306.855,1.449a1.306,1.306,0,0,0,.736,0,6.1,6.1,0,0,0,1.116-.356,5.845,5.845,0,0,0,.807-.522c.974-.712,1.8-1.425,1.757-2.66a3.016,3.016,0,0,0-1.639-2.992,6.958,6.958,0,0,0-3.277-.332c-.855,0-2.066.5-2.66-.332a1.8,1.8,0,0,1,0-1.567,3.252,3.252,0,0,1,.356-.831c.546-.689,3.087-.475,3.942-.522a16.626,16.626,0,0,1,3.063,0,3.847,3.847,0,0,1,2.517,1.259c.522.665.807,1.567,1.591,1.876a2.019,2.019,0,0,0,1,0,2.684,2.684,0,0,0,1.971-1.092,4.108,4.108,0,0,0,0-3.3c-.689-2.375-.38-4.963-1.045-7.338-.356-1.306-1.045-4.488,0-5.581h5.771a20.59,20.59,0,0,0-.237,9.974c1.852,4.417,5.51,10.734,1.211,14.89a13.631,13.631,0,0,1-4.132,2.375,10.852,10.852,0,0,1-2.921.974,29.317,29.317,0,0,1-3.538,0,20.115,20.115,0,0,1-4.441.332,8.052,8.052,0,0,1-2.66-1.259,1.472,1.472,0,0,1-.475-.38,4.958,4.958,0,0,1-.309-.831,2.751,2.751,0,0,0-.332-.57,4.465,4.465,0,0,1-.736-2.683C220.5,74.3,220.592,73.92,220.9,73.754Z" transform="translate(302.022 78.034)" fill="#5e6872"/>
        <g id="Group_315" data-name="Group 315" transform="translate(506.084 320.259)" opacity="0.14">
          <path id="Path_285" data-name="Path 285" d="M218.118,190.6a5.581,5.581,0,0,0,1.354-2.992c0-.594-1.924-3.8-1.71-4.061a1.947,1.947,0,0,1,1.377-.689c-.143-.736-.926-1.092-1.52-1.544s-1.069-1.4-.5-1.9,1.686-.356,2.494-.475c-.166-2.019-.712-4.061-1.069-6.056a12.443,12.443,0,0,0-1.971-5.106c-.974-1.306-2.755-1.5-3.42-3.016a.926.926,0,0,1,0-.427c0-.356.522-.475.879-.475a34.936,34.936,0,0,0,4.465-.285c.807-.142,2.874-1.33,3.253-.617s-1.472,3.538-1.781,4.227a61.176,61.176,0,0,1,1.781,21.183c-.214,4.227-.594,8.454-1.092,12.634a56.19,56.19,0,0,1-1.781,11.731,10.711,10.711,0,0,0-.855-4.94A21.754,21.754,0,0,0,215.1,203.4a2.1,2.1,0,0,1-.618-1.615,11.667,11.667,0,0,1,.119-2.042,54.6,54.6,0,0,0,5.082,2.375A13.679,13.679,0,0,0,217.572,195c-.4-.475-.926-.974-.9-1.615a1.781,1.781,0,0,1,.238-.76A11.586,11.586,0,0,1,218.118,190.6ZM234.741,132.9c.546-1.306-2.636-.142-2.826,0a6.72,6.72,0,0,0-2.232,3.135,54.1,54.1,0,0,0-1.282,5.889,15.863,15.863,0,0,1-4.227,7.457c.926,0,1.449,1.14,1.235,2.019a6.792,6.792,0,0,1-1.5,2.375c-1.021,1.235-1.472,3.562-2.565,4.583-.546.522-1.377.5-1.995.76a34.335,34.335,0,0,1,2.8,2.992s12.539-29.21,12.563-29.21Z" transform="translate(-213.129 -132.282)" fill="#191c3c"/>
        </g>
        <g id="Group_316" data-name="Group 316" transform="translate(563.05 181.473)" opacity="0.27">
          <path id="Path_286" data-name="Path 286" d="M238.693,104.47l-.332,3.158a1.045,1.045,0,0,1-.214-1.069A14.237,14.237,0,0,0,238.693,104.47Z" transform="translate(-235.79 -31.731)" fill="#bfbfbf"/>
          <path id="Path_287" data-name="Path 287" d="M240.306,110.032c1.9-.475-1.8-1.995-3.182-3.562-.19-.522,4.085-.617,4.512-.879-.237-1.9,0-3.586-.237-5.462-1-.522-4.631-.926-3.681-1.259,4.75-1.567.831-21.99-.546-25.03a86.018,86.018,0,0,1,5.438,8.858,59.744,59.744,0,0,1,3.063,11.233l-.57,5.225h-.689a4.87,4.87,0,0,1,.617.57l-1.306,12.23c-.38,0,0,1.14-.451,1.187.356.522,0,0,.261.546l-3.063,28.687c-2.114,12.135-2.375-7.789-2.114-11.233.617-6.982,4.251-15.175-.641-16.315C236.577,114.591,239.213,110.174,240.306,110.032Z" transform="translate(-237.117 -73.84)" fill="#bfbfbf"/>
        </g>
        <path id="Path_288" data-name="Path 288" d="M267.982,87.08l1.235,14.13-12.61,59.322,1.472,7.671-1.472,10.14-3.657,3.206-5.011,1.472-5.367,1.995h-2.28l-4.821-1.995,3.087-3.942,1.235-6.293-1.971,3.325-3.752,1,4.726-11.66,7.765-8.027,5.082-51.39L249.672,87.08Z" transform="translate(321.743 125.835)" fill="#ffcebd"/>
        <path id="Path_289" data-name="Path 289" d="M259.282,91.022H241.067l-.427-3.942h18.31Z" transform="translate(330.776 125.835)" fill="#191c3c" opacity="0.3"/>
        <path id="Path_290" data-name="Path 290" d="M234.66,63.49,262.9,79.615a10.5,10.5,0,0,1,5.272,8.62l1.472,31.252H247.151l-1.4-21.373Z" transform="translate(322.554 93.404)" fill="#fff"/>
        <path id="Path_291" data-name="Path 291" d="M1.564,114.568c24.009,14.842,16.623,49.609,16.22,73.618l-1.069,79.436a1.235,1.235,0,0,0,2.375,0l1.282-94.991c.285-22.347,4.108-46.783-17.645-60.272-1.377-.831-2.612,1.306-1.259,2.161Z" transform="translate(1.164 160.329)" fill="#199b90"/>
        <path id="Path_292" data-name="Path 292" d="M16.072,126.051a29.4,29.4,0,0,0-3.871-6.578,31.989,31.989,0,0,0-9.357-6.863l-.5.261A29.685,29.685,0,0,0,.374,128.948,17.858,17.858,0,0,0,9.612,141.8c3.61,1.734,7.884,1.947,11.256,4.132C21.819,139.065,18.969,132.3,16.072,126.051Z" transform="translate(-0.021 160.933)" fill="#199b90"/>
        <path id="Path_293" data-name="Path 293" d="M30.106,100.533c-23.748,9.5-18.713,45.6-19.663,65.971C8.8,201.057,7.855,235.61,8.164,270.282a1.235,1.235,0,0,0,2.375,0q-.285-43.126,1.5-86.252c.546-12.99,1.187-25.98,1.8-38.97.712-15.08,0-35.408,16.837-42.081,1.449-.57.807-2.968-.665-2.375Z" transform="translate(11.093 144.299)" fill="#199b90"/>
        <path id="Path_294" data-name="Path 294" d="M11.132,118.206a.586.586,0,0,0-.119-.356,11.873,11.873,0,0,0-.974,1.8Z" transform="translate(13.752 168.137)" fill="#199b90"/>
        <path id="Path_295" data-name="Path 295" d="M29.6,101.961a1.567,1.567,0,0,0-.641-.855,1.591,1.591,0,0,0-1.187,0A26.123,26.123,0,0,0,11.15,117.73a35.907,35.907,0,0,0,.57,23.439c2.968-4.75,8.977-7.124,13.2-10.9C32.475,123.311,33.639,111.294,29.6,101.961Z" transform="translate(12.951 144.961)" fill="#199b90"/>
        <path id="Path_296" data-name="Path 296" d="M.18,172H41.264v27.619A13.821,13.821,0,0,1,27.442,213.44H14A13.821,13.821,0,0,1,.18,199.619V172Z" transform="translate(0.197 242.581)" fill="#4d5068"/>
        <path id="Path_297" data-name="Path 297" d="M10.852,175.054c-.38-9.5-.807-20.922,6.293-28.5,5.557-5.866,19.782-9.9,27.761-10.093a1.259,1.259,0,0,0,0-2.494c-6.079.166-12.42,2.565-18.167,4.512A26.858,26.858,0,0,0,15.388,144.8c-7.623,8-7.433,19.9-7.124,30.183,0,1.591,2.541,1.591,2.375,0Z" transform="translate(11.158 190.299)" fill="#199b90"/>
        <path id="Path_298" data-name="Path 298" d="M42.495,133.686a.76.76,0,0,0-.617-.166H32.9a31.06,31.06,0,0,0-7.718.712,24.009,24.009,0,0,0-12.373,9.19l-.95.142a72.549,72.549,0,0,0,14.249,3.966,15.008,15.008,0,0,0,13.346-4.583,18.666,18.666,0,0,0,3.23-8.692.855.855,0,0,0-.19-.57Z" transform="translate(16.254 189.656)" fill="#199b90"/>
        <g id="Group_317" data-name="Group 317" transform="translate(0.377 414.581)" opacity="0.3">
          <path id="Path_299" data-name="Path 299" d="M13.218,172H.18v28.022a13.156,13.156,0,0,0,5.937,11h0l9.5-35.835a2.517,2.517,0,0,0-2.4-3.182Z" transform="translate(-0.18 -172)" fill="#231f20"/>
        </g>
        <rect id="Rectangle_218" data-name="Rectangle 218" width="12.064" height="20.233" transform="translate(355.739 423.034) rotate(-45.63)" fill="#ffcebd"/>
        <rect id="Rectangle_219" data-name="Rectangle 219" width="12.064" height="20.233" transform="translate(295.905 416.101) rotate(17.06)" fill="#ffcebd"/>
        <path id="Path_301" data-name="Path 301" d="M103.066,154.774,92,233.782l3.895.119,20.661-81.621H103.3Z" transform="translate(126.429 215.471)" fill="#444b52"/>
        <path id="Path_302" data-name="Path 302" d="M138.925,154.774l11.066,79.009-3.895.119L125.46,152.28h13.228Z" transform="translate(172.429 215.471)" fill="#444b52"/>
        <path id="Path_303" data-name="Path 303" d="M104.1,148.42h77.465a11.3,11.3,0,0,1,11.3,11.3v.332H92.8v-.332A11.3,11.3,0,0,1,104.1,148.42Z" transform="translate(127.528 210.164)" fill="#fec55e"/>
        <path id="Path_304" data-name="Path 304" d="M94.55,152.638,169.5,187.144l64.285,57.873L245.8,233.072l-55.332-61.72L134.779,131.74Z" transform="translate(129.934 187.233)" fill="#0f75bc"/>
        <path id="Path_305" data-name="Path 305" d="M92.65,133.43v14.106a22.133,22.133,0,0,0,22.133,22.133h69.866c-12.539,15.151-19.734,64.119-19.734,64.119l15.745,4.3,27.761-71.1a20.043,20.043,0,0,0-18.737-27.191h-49.87l.356-6.269Z" transform="translate(127.322 189.556)" fill="#0f75bc"/>
        <path id="Path_306" data-name="Path 306" d="M125.345,104.91l13.038,2.375a25.79,25.79,0,0,1,18.4,13.987l10.686,21.848-10.686,24.009-1.069,10.805s-51.77,22.94-64.475,12.539l-.594-55.19,19.544-28.5Z" transform="translate(124.573 150.348)" fill="#fff"/>
        <path id="Path_307" data-name="Path 307" d="M97.63,98.18s4.132,18.571,3.253,29.376h15.151s-1.544-18.428,1.567-21.373Z" transform="translate(134.169 141.095)" fill="#ffcebd"/>
        <path id="Path_308" data-name="Path 308" d="M126.365,99.2a28.237,28.237,0,0,0-2.992-9.665l-.57.261a13.774,13.774,0,0,0-12.99-2.992A18.547,18.547,0,0,0,99.15,95.286a22.228,22.228,0,0,0-1.662,19,21.729,21.729,0,0,0,14.249,12.848,8.668,8.668,0,0,0,7.6-.784,10.664,10.664,0,0,0,2.042-2.375,20.518,20.518,0,0,0,3.586-7.338,49.54,49.54,0,0,0,.261-6.507C125.343,106.495,126.578,102.885,126.365,99.2Z" transform="translate(132.055 124.73)" fill="#ffcebd"/>
        <path id="Path_309" data-name="Path 309" d="M123.814,89.516a42.959,42.959,0,0,0-5.6-4.2,21.23,21.23,0,0,0-5.106-1.734c-4.441-1.045-7.457-.736-10.853,2.565a14.249,14.249,0,0,0-4.37,9.5,5.771,5.771,0,0,1-1.757,4.75,16.267,16.267,0,0,0-1.876,14.985,10.948,10.948,0,0,0,4.132,5.842c1.662.95,5.937,1.662,6.744,3.657a20.708,20.708,0,0,1-1.4-9.618,4.94,4.94,0,0,1,.689-2.375,2.113,2.113,0,0,1,2.161-1,4.227,4.227,0,0,1,1.52,1,5.153,5.153,0,0,0,3.04,1.021,1.924,1.924,0,0,0,1.211-.285,2.232,2.232,0,0,0,.807-1.5,17.359,17.359,0,0,0-1.282-8.549c-.76-2.209-.9-5.082,2.019-4.892s5.343,1.781,8.145,1.924a23.748,23.748,0,0,0,16.077-5.035,33.389,33.389,0,0,1-14.3-6.056Z" transform="translate(128.099 120.289)" fill="#4d5068"/>
        <path id="Path_310" data-name="Path 310" d="M103.4,118.909l4.417-14.439,2.588.5,2.755,23.178Z" transform="translate(142.101 149.743)" fill="#0f75bc"/>
        <path id="Path_311" data-name="Path 311" d="M124.956,104.91,111.087,107.5a20.566,20.566,0,0,0-15.151,12.23l-15.579,36.9A7.908,7.908,0,0,0,87.648,167.6l55.4-2.755,2.541-7.86-6.1,2.09-34.672-2.945a3.657,3.657,0,0,1-2.541-5.889l23.2-31.941S129.634,106.857,124.956,104.91Z" transform="translate(109.574 150.348)" fill="#ffcebd"/>
        <path id="Path_312" data-name="Path 312" d="M121.78,104.91,107.911,107.5a20.566,20.566,0,0,0-15.151,12.23l-10.71,22.75c8.383-.879,17.051,7.813,23.012,3.135L122.3,118.3S126.458,106.857,121.78,104.91Z" transform="translate(112.75 150.348)" fill="#fff"/>
        <path id="Path_313" data-name="Path 313" d="M100.957,104.53l11.09,14.3-7.837,10.283-7.1-23.676Z" transform="translate(133.454 149.825)" fill="#0f75bc"/>
        <path id="Path_314" data-name="Path 314" d="M123.427,179.28l-3.847,9.784v7.718h47.306v-2.137a4.156,4.156,0,0,0-3.158-4.037l-7.623-1.8-15.959-9.5H137.32l-1.282,2.826H127.7l-.76-2.826Z" transform="translate(164.345 252.59)" fill="#4d5068"/>
        <path id="Path_315" data-name="Path 315" d="M119.58,184.91v4.132h47.306V186.9a4.086,4.086,0,0,0-.5-1.995Z" transform="translate(164.345 260.33)" fill="#fff"/>
        <path id="Path_316" data-name="Path 316" d="M154.23,196.277l5.533,8.929,6.2,4.607,29.352-38-1.71-1.282a4.108,4.108,0,0,0-5.106.142l-6.032,5.035-18.238,7.124-1.686,2.375,1.5,2.731-4.916,6.578-2.731-1.069Z" transform="translate(211.981 239.44)" fill="#4d5068"/>
        <path id="Path_317" data-name="Path 317" d="M157.78,207.388l3.3,2.375,29.352-38-1.71-1.282a4.084,4.084,0,0,0-1.876-.784Z" transform="translate(216.862 239.419)" fill="#fff"/>
        <path id="Path_318" data-name="Path 318" d="M92.872,133.8,69.29,267.239H73.4L106.835,132.85Z" transform="translate(95.207 188.759)" fill="#444b52"/>
        <path id="Path_319" data-name="Path 319" d="M243.264,133.8l23.582,133.439h-4.085L229.3,132.85Z" transform="translate(315.186 188.759)" fill="#444b52"/>
        <rect id="Rectangle_220" data-name="Rectangle 220" width="468.401" height="6.341" transform="translate(139.182 330.111)" fill="#f7f7f7"/>
        <path id="Path_320" data-name="Path 320" d="M58.63,144.417l25.98-13.8h451.8l-9.285,13.8Z" transform="translate(80.552 185.693)" fill="#fff"/>
        <path id="Path_321" data-name="Path 321" d="M255.87,150.734l9.38-13.227V130.62l-9.285,13.8Z" transform="translate(351.713 185.693)" fill="#f7f7f7"/>
        <rect id="Rectangle_221" data-name="Rectangle 221" width="33.888" height="4.441" transform="translate(213.964 317.857)" fill="#444b52"/>
        <path id="Path_322" data-name="Path 322" d="M169.147,158.752H99.4L115.833,116.2a2.66,2.66,0,0,1,2.494-1.686h64.119a2.636,2.636,0,0,1,2.375,3.61Z" transform="translate(136.602 163.545)" fill="#444b52"/>
        <path id="Path_323" data-name="Path 323" d="M124.579,126.36a4.346,4.346,0,1,1-1.264-3.088A4.37,4.37,0,0,1,124.579,126.36Z" transform="translate(159.203 173.829)" fill="#717386"/>
        <path id="Path_324" data-name="Path 324" d="M144.788,135.529h-3.063a5.035,5.035,0,0,1,0-10.069H143.7V127.6h-1.971a2.9,2.9,0,1,0,0,5.794h3.063Z" transform="translate(187.867 178.599)" fill="#199b90"/>
        <path id="Path_325" data-name="Path 325" d="M157.821,124.76H139.25v5.628a16.03,16.03,0,0,0,4.227,10.829h0v2.826h10.117v-2.826h0a16.03,16.03,0,0,0,4.227-10.829Z" transform="translate(191.387 177.637)" fill="#199b90"/>
        <g id="Group_318" data-name="Group 318" transform="translate(341.157 302.397)" opacity="0.29">
          <path id="Path_326" data-name="Path 326" d="M147.907,124.76v5.628a15.911,15.911,0,0,1-4.227,10.829h0v2.826h2.185v-2.826h0a15.911,15.911,0,0,0,4.227-10.829V124.76Z" transform="translate(-143.68 -124.76)" fill="#fff"/>
        </g>
        <path id="Path_327" data-name="Path 327" d="M215.34,145.223h4.275L215.34,126.89,199.5,145.223Z" transform="translate(274.217 180.565)" fill="#5e6872"/>
        <path id="Path_328" data-name="Path 328" d="M218.4,154.352H193.75l10.544-34.1h24.65Z" transform="translate(266.312 171.437)" fill="#0f75bc"/>
        <path id="Path_329" data-name="Path 329" d="M217.314,154.352H192.64l10.544-34.1h24.65Z" transform="translate(264.786 171.437)" fill="#5e6872"/>
        <path id="Path_330" data-name="Path 330" d="M212.781,147.3H194.59l7.766-25.173h18.191Z" transform="translate(267.467 174.021)" fill="#199b90"/>
        <g id="Group_319" data-name="Group 319" transform="translate(462.057 296.151)" opacity="0.2">
          <path id="Path_331" data-name="Path 331" d="M195.9,146.638l7.552-24.508h-1.092L194.59,147.3h18.191l.19-.665Z" transform="translate(-194.59 -122.13)" fill="#fff"/>
        </g>
        <path id="Path_332" data-name="Path 332" d="M243.287,160.648h0a.879.879,0,0,1-1.14-.309L216.214,114.1a.807.807,0,0,1,.309-1.116h0a.879.879,0,0,1,1.14.309L243.6,159.508a.784.784,0,0,1-.309,1.14Z" transform="translate(297.043 161.318)" fill="#191c3c"/>
        <rect id="Rectangle_222" data-name="Rectangle 222" width="69.913" height="5.533" rx="0.89" transform="translate(534.583 321.514)" fill="#474963"/>
        <path id="Path_333" data-name="Path 333" d="M295.043,134.815a2.564,2.564,0,0,0-.617-1.615,2.589,2.589,0,0,1-2.565,2.541H227.077a2.541,2.541,0,0,1-1.947-.95h0v.38a2.565,2.565,0,0,0,2.565,2.565h64.784a2.565,2.565,0,0,0,2.565-2.565Z" transform="translate(309.453 189.24)" fill="#191c3c"/>
        <rect id="Rectangle_223" data-name="Rectangle 223" width="5.082" height="1.947" transform="translate(581.318 322.963)" fill="#75778a"/>
        <rect id="Rectangle_224" data-name="Rectangle 224" width="5.082" height="1.947" transform="translate(587.327 322.963)" fill="#75778a"/>
        <rect id="Rectangle_225" data-name="Rectangle 225" width="5.082" height="1.947" transform="translate(544.581 322.986)" fill="#75778a"/>
        <rect id="Rectangle_226" data-name="Rectangle 226" width="15.792" height="16.315" transform="matrix(-0.91, -0.414, 0.414, -0.91, 72.229, 439.583)" fill="#ffcebd"/>
        <path id="Path_334" data-name="Path 334" d="M93.11,175.625,78.173,212.292,42.765,269.025,25.5,261.236l35.574-66.874,3.372-81.5Z" transform="translate(35.006 161.277)" fill="#4d5068"/>
        <path id="Path_335" data-name="Path 335" d="M49,181.613l1.211.522,5.628,13.679,3.135,4.8,9.784,2.683v4.037l-11.565.214L21.6,192.537l-.736-4.8,4.916-11.114,3.087-.546,2.422,1.069,3.158,8.1,11.161,4.773Z" transform="translate(28.627 248.191)" fill="#191c3c"/>
        <path id="Path_336" data-name="Path 336" d="M20.87,187.716l4.892-11.09,3.087-.546,2.422,1.069,3.158,8.1,11.161,4.773,3.4-8.407,1.211.522,5.628,13.679,3.135,4.8,9.784,2.683v1.021h-8.5Z" transform="translate(28.641 248.191)" fill="#199b90"/>
        <rect id="Rectangle_227" data-name="Rectangle 227" width="14.747" height="15.222" transform="translate(129.398 446.166) rotate(180)" fill="#ffcebd"/>
        <path id="Path_337" data-name="Path 337" d="M67.935,181.16h1.211l9.974,9.547,15.84,6.008v4.108H48.676L46.23,197V185.672l2.446-1.639h2.47l5.723,5.723,11.328-.143Z" transform="translate(63.505 255.174)" fill="#191c3c"/>
        <path id="Path_338" data-name="Path 338" d="M51.146,184.033l5.723,5.723,11.328-.143-.261-8.454h1.211l9.974,9.547,15.555,5.913H46.23V185.672l2.446-1.639Z" transform="translate(63.505 255.174)" fill="#199b90"/>
        <path id="Path_339" data-name="Path 339" d="M110.855,114.145c-2.042-3.7-4.465-7.124-6.151-11.066-3.752-8.668-3.491-18.476-3.158-27.9l-1.259-3.562a26.36,26.36,0,0,0-12.325,0,12.206,12.206,0,0,0-4.583,1.354,12.7,12.7,0,0,0-3.776,4.3,40.062,40.062,0,0,0-3.538,6.649c-2.375,6.032,0,11.874-.807,17.906a175.025,175.025,0,0,1-4.631,19.212,51.248,51.248,0,0,0-1.544,8.858,27.263,27.263,0,0,0,5.438,17.858,62.818,62.818,0,0,0,5.984,6.079,3.253,3.253,0,0,0,5.414-1.354c1.8-5.438,5.13-10.9,9.072-11.874-.594-3.871,2.09-6.768,3.918-9.879a24.436,24.436,0,0,0,2.707-12.468c4.085,0,9.95,5.2,12.943,7.766a24.888,24.888,0,0,0-3.7-11.874Z" transform="translate(94.868 103.567)" fill="#5e6872"/>
        <path id="Path_340" data-name="Path 340" d="M41.3,147.152l.5,1.4L54.076,197.64v18.452l2.375-3.8L71.46,175.625,42.725,112.86Z" transform="translate(56.727 161.277)" fill="#231f20" opacity="0.1"/>
        <path id="Path_341" data-name="Path 341" d="M42.86,107.11,37.92,119.6c0,14.557,7.291,23.035,11.874,36.857l12.3,49.087v78.51H79.431L85.985,204.5l-1.092-79.579Z" transform="translate(52.081 153.372)" fill="#4d5068"/>
        <path id="Path_342" data-name="Path 342" d="M75.192,84.51l21.373,30.112a10.165,10.165,0,0,0,1.164,1.306l16.03,13.489,7.552-2.707a6.269,6.269,0,0,1,4.75.261l9.974,7.124-3.04.712-4.108,1.449.617,1.282,3.752-.214a3.182,3.182,0,0,1,3.206,2.375l.166.617-7.932.926c-3.158,1.544-6.768-.665-9.784-1.069l-5.7-.427-1.425-.475L92.362,126.71a21.682,21.682,0,0,1-5.462-4.393l-16.41-16.1Z" transform="translate(96.857 122.302)" fill="#ffcebd"/>
        <path id="Path_343" data-name="Path 343" d="M72.3,79.82l-6.364,28.5,20.922,19.164c6.317-1.354,7.124-21.041,7.124-21.041Z" transform="translate(90.602 115.854)" fill="#0f75bc"/>
        <path id="Path_344" data-name="Path 344" d="M89.586,89.35S78.092,94.978,76.5,99.775L71.3,81.608,87.33,70.66Z" transform="translate(97.971 103.262)" fill="#ffcebd"/>
        <path id="Path_345" data-name="Path 345" d="M108.99,75.775h0A138.806,138.806,0,0,0,65.365,116l-27.714,39.54c-3.538,27.595,27.334,40.11,50.511,32.06l9.309-31.133a19,19,0,0,1,8.145-10.686l5.153-3.206a23.51,23.51,0,0,0,9.19-10.235,50.749,50.749,0,0,0,3.871-29.3L123.025,98,117.943,71.88Z" transform="translate(51.328 104.939)" fill="#0f75bc"/>
        <path id="Path_346" data-name="Path 346" d="M70.5,84.4c-5.509.261-8.122,4.393-8.122,9.9L60.64,138.659a6.791,6.791,0,0,0,.142,1.377l1.781,9.024,2.921-9.784A19,19,0,0,1,73.63,128.59l1.021-.641,6.507-31.7A10.33,10.33,0,0,0,70.5,84.4Z" transform="translate(83.316 122.132)" fill="#231f20" opacity="0.1"/>
        <path id="Path_347" data-name="Path 347" d="M61.4,92.958v46.071a7.243,7.243,0,0,0,.142,1.425L77,183.2a9.5,9.5,0,0,1-.617,5.581L71.945,198.9l-.974,2.826a2.042,2.042,0,0,0,2.09,2.731l11.874-.95a2.945,2.945,0,0,0,2.636-2.375l2.185-11.565L73.821,138.412l9-43.981A10.805,10.805,0,0,0,71.636,81.987h0A10.805,10.805,0,0,0,61.4,92.958Z" transform="translate(84.36 118.817)" fill="#ffcebd"/>
        <path id="Path_348" data-name="Path 348" d="M73.38,81.6c-5.771.261-10.4,2.66-10.4,8.454L60.2,122.943s18.594,8.739,22.014,1.995L86.56,92.665C87.6,85.921,80.2,81.29,73.38,81.6Z" transform="translate(82.711 118.279)" fill="#0f75bc"/>
        <path id="Path_349" data-name="Path 349" d="M74.25,125.71l7.219,16.956-4.892.024-4.987-9.4Z" transform="translate(98.369 178.943)" fill="#ffcebd"/>
        <path id="Path_350" data-name="Path 350" d="M80.251,70.757c4.75-3.728,16.41-5.889,20.756-.332,2.494,3.158,1.662,7.694-.214,11.874a13.038,13.038,0,0,0-.784,7.5c0,.5-3.562.237-3.823.641-.879,1.306-.831,1.164-1.52,2.09a11.874,11.874,0,0,1-5.6,4.75,8.763,8.763,0,0,1-8.834-2.968,21.516,21.516,0,0,1-4.18-8.858,20.8,20.8,0,0,1-.784-3.99A13.109,13.109,0,0,1,80.251,70.757Z" transform="translate(103.411 98.296)" fill="#ffcebd"/>
        <path id="Path_351" data-name="Path 351" d="M97.1,85.819c-2.945,1.971-3.61,6.1-6.079,8.668A13.679,13.679,0,0,1,81,97.645a15.792,15.792,0,0,1-9.5-2.375,11.589,11.589,0,0,1-4.251-7.955A20.636,20.636,0,0,1,68.536,78.2a34.98,34.98,0,0,1,7.386-12.254,15.46,15.46,0,0,1,5.818-4.227,19.972,19.972,0,0,1,8.763-.356,46.831,46.831,0,0,1,15.127,3.467,21.373,21.373,0,0,1,6.554,4.465l2.8,3.325a18.173,18.173,0,0,1,1.211,1.544,7.552,7.552,0,0,1,1.4,3.966,5.106,5.106,0,0,1-1.472,3.847,6.483,6.483,0,0,1-2.873,1.449,42.008,42.008,0,0,1-7.718,1.116C102.685,84.7,99.669,84.109,97.1,85.819Z" transform="translate(92.304 90.027)" fill="#5e6872"/>
        <path id="Path_352" data-name="Path 352" d="M123.648,84.132,93.56,83.158l1-30.991,28.094-1Z" transform="translate(128.573 76.467)" fill="#231f20" opacity="0.21"/>
        <rect id="Rectangle_228" data-name="Rectangle 228" width="29.091" height="31.988" transform="translate(222.133 127.637)" fill="#fff"/>
        <path id="Path_353" data-name="Path 353" d="M104.344,52.07a7.5,7.5,0,1,0,7.5,7.5h-7.5Z" transform="translate(133.083 77.704)" fill="#a5c8e0"/>
        <rect id="Rectangle_229" data-name="Rectangle 229" width="20.542" height="1.971" transform="translate(227.073 146.445)" fill="#a5c8e0"/>
        <rect id="Rectangle_230" data-name="Rectangle 230" width="20.542" height="1.971" transform="translate(227.073 150.387)" fill="#a5c8e0"/>
        <rect id="Rectangle_231" data-name="Rectangle 231" width="13.109" height="1.971" transform="translate(227.073 154.353)" fill="#a5c8e0"/>
        <path id="Path_354" data-name="Path 354" d="M123.438,100.442l-30.088-1,1-30.991,28.094-.974Z" transform="translate(128.285 98.89)" fill="#231f20" opacity="0.21"/>
        <rect id="Rectangle_232" data-name="Rectangle 232" width="29.091" height="31.988" transform="translate(221.635 166.37)" fill="#fff"/>
        <rect id="Rectangle_233" data-name="Rectangle 233" width="26.479" height="1.971" transform="translate(223.439 193.086)" fill="#a5c8e0"/>
        <rect id="Rectangle_234" data-name="Rectangle 234" width="3.515" height="6.649" transform="translate(224.508 185.154)" fill="#a5c8e0"/>
        <rect id="Rectangle_235" data-name="Rectangle 235" width="3.515" height="12.206" transform="translate(229.685 179.597)" fill="#a5c8e0"/>
        <rect id="Rectangle_236" data-name="Rectangle 236" width="3.515" height="19.877" transform="translate(234.838 171.927)" fill="#a5c8e0"/>
        <rect id="Rectangle_237" data-name="Rectangle 237" width="3.515" height="14.937" transform="translate(240.015 176.866)" fill="#a5c8e0"/>
        <rect id="Rectangle_238" data-name="Rectangle 238" width="3.515" height="19.877" transform="translate(245.192 171.927)" fill="#a5c8e0"/>
        <path id="Path_355" data-name="Path 355" d="M158.835,143.1c-2.707,0-2.945-1.021-.57-2.375l13.987-7.433a23.439,23.439,0,0,1,9.214-2.375H218.11c2.707,0,2.945,1.045.57,2.375l-14.106,7.457a23.534,23.534,0,0,1-9.238,2.375Z" transform="translate(215.284 186.106)" fill="#0f75bc"/>
        <path id="Path_356" data-name="Path 356" d="M161.168,141.263c-2.137,0-2.375-.831-.451-1.829l11.66-6.269a18.523,18.523,0,0,1,7.291-1.8h29.067c2.114,0,2.375.807.427,1.8l-11.874,6.293a19,19,0,0,1-7.314,1.8Z" transform="translate(219.101 186.711)" fill="#fff"/>
        <path id="Path_357" data-name="Path 357" d="M161.415,135.152a.285.285,0,0,1-.261-.166.309.309,0,0,1,0-.4l3.657-1.947a.332.332,0,0,1,.427,0,.309.309,0,0,1-.142.427l-3.657,1.947Z" transform="translate(221.396 188.356)" fill="#3a3c4e"/>
        <path id="Path_358" data-name="Path 358" d="M253.37,143.71a11.278,11.278,0,0,1,1.187.238l1.354.475,1.71.831,1.924,1.259c.665.475,1.282,1.092,2.019,1.686a27.477,27.477,0,0,1,3.918,4.607,43.191,43.191,0,0,1,3.467,5.961c.9,2.209,1.971,4.536,2.707,7.006a76.673,76.673,0,0,1,2.019,7.647c.5,2.636,1.164,5.3,1.4,7.979s.736,5.391.879,8.027.285,5.272.427,7.813,0,4.963,0,7.291v6.531l-.736,13.465-6.934-.5s.712-5.3,1.8-13.228c.166-1.995.356-4.132.546-6.412s.475-4.75.522-7.124.143-5.058.214-7.671-.166-5.272-.238-7.932a72.576,72.576,0,0,0-.736-7.884,65.025,65.025,0,0,0-1.354-7.6,70.323,70.323,0,0,0-2.09-6.958,41.2,41.2,0,0,0-2.9-5.984,26.293,26.293,0,0,0-3.467-4.75c-.641-.617-1.211-1.235-1.829-1.734l-1.781-1.33-1.615-.9L254.486,144A9.5,9.5,0,0,0,253.37,143.71Z" transform="translate(348.276 203.689)" fill="#0f75bc"/>
        <path id="Path_359" data-name="Path 359" d="M272.157,203.228s-.689-3.23-1.971-8.1-3.087-11.328-5.3-17.716c-1.116-3.182-2.375-6.341-3.633-9.285-.689-1.449-1.282-2.874-1.971-4.18a40.147,40.147,0,0,0-2.066-3.657,26.767,26.767,0,0,0-2.042-2.968c-.712-.831-1.282-1.615-1.852-2.161L251.33,153.5l2.209,1.5c.665.522,1.33,1.235,2.185,2.042a34.441,34.441,0,0,1,2.375,2.826c.9,1.069,1.662,2.375,2.565,3.538s1.686,2.66,2.565,4.085c1.686,2.85,3.348,5.937,4.892,9.072a259.64,259.64,0,0,1,10.924,25.481Z" transform="translate(345.472 217.148)" fill="#0f75bc"/>
        <path id="Path_360" data-name="Path 360" d="M261.11,194.4s.285-2.375,1.021-5.771a84.789,84.789,0,0,1,3.61-12.349,46.285,46.285,0,0,1,3.064-6.364,27.024,27.024,0,0,1,1.876-2.778,15.108,15.108,0,0,1,2.09-2.375,9.832,9.832,0,0,1,2.114-1.71,8.982,8.982,0,0,1,1.924-1.021l1.828-.594-1.639.855a6.72,6.72,0,0,0-1.544,1.211,8.714,8.714,0,0,0-1.567,1.852,11.66,11.66,0,0,0-1.354,2.375,19,19,0,0,0-1.116,2.826,40.185,40.185,0,0,0-1.377,6.317,73.1,73.1,0,0,0-.522,12.088,36.123,36.123,0,0,0,.356,5.438Z" transform="translate(358.917 228.064)" fill="#0f75bc"/>
        <path id="Path_361" data-name="Path 361" d="M253,173.33l5.438,33.247a6.056,6.056,0,0,0,5.984,5.082h18.333a6.056,6.056,0,0,0,5.984-5.082l5.438-33.247Z" transform="translate(347.768 244.41)" fill="#444b52"/>
        <path id="Path_362" data-name="Path 362" d="M253.02,173.32H294.2L289.853,199.8l-35.669-19.426Z" transform="translate(347.795 244.396)" fill="#444b52"/>
        <rect id="Rectangle_239" data-name="Rectangle 239" width="51.39" height="9.475" rx="0.31" transform="translate(595.709 408.906)" fill="#444b52"/>
        <circle id="Ellipse_8" data-name="Ellipse 8" cx="42.295" cy="42.295" r="42.295" transform="translate(344.482 6.12)" fill="#199b90"/>
        <circle id="Ellipse_9" data-name="Ellipse 9" cx="37.355" cy="37.355" r="37.355" transform="matrix(0.931, -0.365, 0.365, 0.931, 338.364, 27.272)" fill="#a5c8e0"/>
        <rect id="Rectangle_240" data-name="Rectangle 240" width="3.301" height="36.572" rx="0.52" transform="translate(385.375 13.292)" fill="#199b90"/>
        <rect id="Rectangle_241" data-name="Rectangle 241" width="3.296" height="22.672" rx="0.519" transform="matrix(0.571, 0.821, -0.821, 0.571, 404.492, 33.644)" fill="#199b90"/>
        <path id="Path_363" data-name="Path 363" d="M239.979,71.622l6.911-10.069a24.175,24.175,0,1,0-14.011.974l6.269,9.1a.522.522,0,0,0,.831,0Z" transform="translate(294.295 26.449)" fill="#0f75bc"/>
        <circle id="Ellipse_10" data-name="Ellipse 10" cx="17.17" cy="17.17" r="17.17" transform="translate(515.395 48.415)" fill="#fff" opacity="0.1"/>
        <path id="Path_364" data-name="Path 364" d="M237.677,33.355h2.232a.831.831,0,0,0,.831-.807V29.7a.831.831,0,0,0-.831-.831h-1.734a.665.665,0,0,1-.641-.451l-.214-.475a.689.689,0,0,1,.142-.784l1.235-1.235a.855.855,0,0,0,0-1.164L236.68,22.74a.855.855,0,0,0-1.164,0L234.257,24a.689.689,0,0,1-.736.142L233,23.927a.689.689,0,0,1-.427-.641v-1.8a.831.831,0,0,0-.831-.831h-2.85a.831.831,0,0,0-.807.831v1.734a.665.665,0,0,1-.475.641l-.5.214a.689.689,0,0,1-.784-.119l-1.235-1.235a.855.855,0,0,0-1.164,0l-1.995,2.019a.807.807,0,0,0,0,1.164l1.259,1.235a.736.736,0,0,1,.143.76,2.376,2.376,0,0,0-.214.522.689.689,0,0,1-.641.427h-1.757a.831.831,0,0,0-.831.807V32.5a.807.807,0,0,0,.807.807h1.829a.712.712,0,0,1,.641.451,4.29,4.29,0,0,0,.19.5.641.641,0,0,1-.119.76L222,36.276a.807.807,0,0,0,0,1.14l2.019,2.019a.855.855,0,0,0,1.164,0l1.235-1.259a.736.736,0,0,1,.76-.142l.522.214a.689.689,0,0,1,.427.641v1.757a.831.831,0,0,0,.831.831h2.85a.807.807,0,0,0,.807-.807V38.912a.712.712,0,0,1,.451-.641l.5-.19a.689.689,0,0,1,.831.024l1.259,1.235a.784.784,0,0,0,1.14,0l2.019-2.019a.855.855,0,0,0,0-1.164l-1.259-1.235a.712.712,0,0,1-.143-.736A7.3,7.3,0,0,1,237.677,33.355Zm-11.328-2.968a4.037,4.037,0,0,1,5.414-3.04,4.108,4.108,0,0,1,2.517,4.512,4.037,4.037,0,0,1-7.932-1.472Z" transform="translate(302.249 34.509)" fill="#fff"/>
      </g>
    </g>
  </g>
</svg>
