<svg id="Icon_3" data-name="Icon 3" xmlns="http://www.w3.org/2000/svg" width="34.758" height="49.647" viewBox="0 0 34.758 49.647">
  <g id="Group_328" data-name="Group 328" transform="translate(0 0)">
    <path id="Path_379" data-name="Path 379" d="M27.386,52.384A16.884,16.884,0,0,1,19.2,47.915c-3.619,1.776-5.408,4.4-5.408,8.01V68.19a40.512,40.512,0,0,0,12.457,3.3l-1.457-1.166a1.563,1.563,0,0,1-.557-1.538Z" transform="translate(-13.792 -21.84)" fill="#0f75bc"/>
    <path id="Path_380" data-name="Path 380" d="M33.834,28.556A13.912,13.912,0,1,0,20.028,14.644,13.881,13.881,0,0,0,33.834,28.556Z" transform="translate(-16.582 -0.733)" fill="#0f75bc"/>
    <path id="Path_381" data-name="Path 381" d="M41.567,56.978,38.59,72.529l3.676,2.939,3.669-2.937L42.914,56.978Z" transform="translate(-24.886 -25.895)" fill="#26cec0"/>
    <path id="Path_382" data-name="Path 382" d="M59.992,47.9a16.9,16.9,0,0,1-8.009,4.43L55.19,68.771a1.568,1.568,0,0,1-.554,1.542l-1.379,1.1a46.035,46.035,0,0,0,12.378-3.293V55.916C65.635,52.3,63.769,49.674,59.992,47.9Z" transform="translate(-30.877 -21.832)" fill="#0f75bc"/>
  </g>
</svg>
