<svg id="Icon_4" data-name="Icon 4" xmlns="http://www.w3.org/2000/svg" width="56.904" height="49.647" viewBox="0 0 56.904 49.647">
  <g id="Group_330" data-name="Group 330" transform="translate(0 0)">
    <path id="Path_387" data-name="Path 387" d="M19.24,33.947A13.419,13.419,0,1,0,5.921,20.529,13.389,13.389,0,0,0,19.24,33.947Z" transform="translate(-2.633 -7.11)" fill="#0f75bc"/>
    <path id="Path_388" data-name="Path 388" d="M28.705,46.2a15.921,15.921,0,0,1-22.642.084C2.494,48.006.732,50.563.732,54.1V66.472c1.786.99,6.133,4.606,16.826,4.606,10.791,0,15.289-3.535,16.628-4.491V54.1C34.185,50.493,32.374,47.91,28.705,46.2Z" transform="translate(-0.732 -21.43)" fill="#0f75bc"/>
  </g>
  <path id="Path_389" data-name="Path 389" d="M75.074,17.835H56.229a2.116,2.116,0,1,1,0-4.233H75.074a2.116,2.116,0,1,1,0,4.233Z" transform="translate(-20.287 -9.488)" fill="#26cec0"/>
  <path id="Path_390" data-name="Path 390" d="M75.074,36.738H56.229a2.116,2.116,0,0,1,0-4.233H75.074a2.116,2.116,0,1,1,0,4.233Z" transform="translate(-20.287 -16.413)" fill="#26cec0"/>
  <path id="Path_391" data-name="Path 391" d="M76.894,55.638h-15.7a2.116,2.116,0,1,1,0-4.233h15.7a2.116,2.116,0,1,1,0,4.233Z" transform="translate(-22.106 -23.336)" fill="#26cec0"/>
  <path id="Path_392" data-name="Path 392" d="M76.894,74.54h-15.7a2.116,2.116,0,1,1,0-4.233h15.7a2.116,2.116,0,0,1,0,4.233Z" transform="translate(-22.106 -30.261)" fill="#26cec0"/>
</svg>
