<svg id="Icon_1" data-name="Icon 1" xmlns="http://www.w3.org/2000/svg" width="53.525" height="49.647" viewBox="0 0 53.525 49.647">
  <g id="Group_332" data-name="Group 332" transform="translate(0 0)">
    <path id="Path_393" data-name="Path 393" d="M45.429,22.3H2.262A1.492,1.492,0,0,1,.771,20.8V11.166A1.491,1.491,0,0,1,2.262,9.674H45.429a1.491,1.491,0,0,1,1.492,1.492V20.8A1.492,1.492,0,0,1,45.429,22.3ZM3.754,19.314H43.939V12.657H3.754Z" transform="translate(-0.771 -5.654)" fill="#0f75bc"/>
    <path id="Path_394" data-name="Path 394" d="M16.852,14.077a1.491,1.491,0,0,1-1.491-1.491V4.414a1.492,1.492,0,1,1,2.983,0v8.172A1.491,1.491,0,0,1,16.852,14.077Z" transform="translate(-6.674 -2.922)" fill="#0f75bc"/>
    <path id="Path_395" data-name="Path 395" d="M38.513,14.077a1.491,1.491,0,0,1-1.492-1.491V4.414a1.492,1.492,0,1,1,2.983,0v8.172A1.491,1.491,0,0,1,38.513,14.077Z" transform="translate(-15.437 -2.922)" fill="#0f75bc"/>
    <path id="Path_396" data-name="Path 396" d="M60.17,14.077a1.491,1.491,0,0,1-1.492-1.491V4.414a1.492,1.492,0,1,1,2.983,0v8.172A1.491,1.491,0,0,1,60.17,14.077Z" transform="translate(-24.198 -2.922)" fill="#0f75bc"/>
    <g id="Group_331" data-name="Group 331" transform="translate(0 13.661)">
      <rect id="Rectangle_252" data-name="Rectangle 252" width="4.524" height="4.523" transform="translate(8.559 9.125)" fill="#0f75bc"/>
      <rect id="Rectangle_253" data-name="Rectangle 253" width="4.524" height="4.523" transform="translate(8.559 22.026)" fill="#0f75bc"/>
      <path id="Path_397" data-name="Path 397" d="M38.742,39.075a1.491,1.491,0,0,0,1.6-.235l6.072-5.3a1.488,1.488,0,0,0,.51-1.122V27.357a1.492,1.492,0,0,0-1.492-1.492H2.262A1.492,1.492,0,0,0,.771,27.357v33a1.49,1.49,0,0,0,1.491,1.491H41.089a5.839,5.839,0,0,0,5.832-5.835V41.5a1.491,1.491,0,0,0-2.51-1.088L38.34,46.092a1.485,1.485,0,0,0-.472,1.088v4.738H22.083V35.489H37.868V38.71C37.868,39.3,38.209,38.832,38.742,39.075ZM16.34,53.407A1.492,1.492,0,0,1,14.848,54.9H8.335a1.491,1.491,0,0,1-1.491-1.492V46.9a1.492,1.492,0,0,1,1.491-1.492h6.513A1.493,1.493,0,0,1,16.34,46.9v6.51Zm0-12.9A1.492,1.492,0,0,1,14.848,42H8.335a1.491,1.491,0,0,1-1.491-1.491V34A1.491,1.491,0,0,1,8.335,32.5h6.513A1.492,1.492,0,0,1,16.34,34v6.511Z" transform="translate(-0.771 -25.865)" fill="#0f75bc"/>
    </g>
    <path id="Path_398" data-name="Path 398" d="M45.877,48.129a1.65,1.65,0,0,1-.194-.013,1.49,1.49,0,0,1-1.043-.644l-4.307-6.391a1.492,1.492,0,0,1,2.474-1.669L46.17,44.4,67.726,25.59a1.492,1.492,0,0,1,1.962,2.248L46.858,47.762A1.49,1.49,0,0,1,45.877,48.129Z" transform="translate(-16.673 -11.944)" fill="#26cec0"/>
  </g>
</svg>
