<svg id="Icon_6" data-name="Icon 6" xmlns="http://www.w3.org/2000/svg" width="44.896" height="49.132" viewBox="0 0 44.896 49.132">
  <g id="Group_333" data-name="Group 333" transform="translate(0 0)">
    <path id="Path_399" data-name="Path 399" d="M30.526,51.13a10.814,10.814,0,0,0-.134-1.621L34.3,47.248l-4.053-7.017-3.905,2.256a10.971,10.971,0,0,0-2.812-1.626V36.352h-8.1v4.509a11.161,11.161,0,0,0-2.713,1.549l-3.881-2.3L4.705,47.083l3.879,2.3a11.214,11.214,0,0,0-.149,1.749,10.879,10.879,0,0,0,.131,1.624L4.658,55.011l4.051,7.017,3.906-2.255A11.057,11.057,0,0,0,15.427,61.4v4.508h8.1V61.4a10.938,10.938,0,0,0,2.713-1.551l3.879,2.3,4.134-6.973-3.884-2.3a11.068,11.068,0,0,0,.152-1.747M19.477,56.524a5.4,5.4,0,1,1,5.4-5.394,5.4,5.4,0,0,1-5.4,5.394" transform="translate(-4.658 -16.775)" fill="#0f75bc"/>
    <path id="Path_400" data-name="Path 400" d="M65.169,11.828a8.155,8.155,0,0,0-.1-1.233l2.971-1.712L64.959,3.549,61.991,5.26a8.419,8.419,0,0,0-2.135-1.232V.6H53.7V4.028A8.248,8.248,0,0,0,51.64,5.2L48.689,3.457l-3.136,5.3L48.5,10.5a8.43,8.43,0,0,0-.117,1.331,8.311,8.311,0,0,0,.1,1.232l-2.97,1.715L48.6,20.11,51.563,18.4A8.494,8.494,0,0,0,53.7,19.628v3.425h6.161V19.628a8.331,8.331,0,0,0,2.056-1.176L64.866,20.2,68,14.9l-2.951-1.745a8.142,8.142,0,0,0,.117-1.329m-8.392,4.709a4.709,4.709,0,1,1,4.711-4.709,4.716,4.716,0,0,1-4.711,4.709" transform="translate(-23.142 -0.603)" fill="#26cec0"/>
  </g>
</svg>
