<svg id="Layer_2" data-name="Layer 2" xmlns="http://www.w3.org/2000/svg" width="86" height="87.133" viewBox="0 0 86 87.133">
  <g id="Layer_1" data-name="Layer 1" transform="translate(0 0)">
    <path id="Path_44" data-name="Path 44" d="M85.6,34.908a43.23,43.23,0,0,0-84.8,0L.24,37.663l22.229-1.252.065-.182a21.9,21.9,0,0,1,41.332,0l.065.182,22.229,1.252Z" transform="translate(-0.199 -0.119)" fill="#1b75bc"/>
    <path id="Path_45" data-name="Path 45" d="M63.932,287.587l-.065.182a21.9,21.9,0,0,1-41.332,0l-.065-.182L.24,286.33.8,289.087a43.23,43.23,0,0,0,84.8,0l.561-2.757Z" transform="translate(-0.199 -236.764)" fill="#1b75bc"/>
    <path id="Path_46" data-name="Path 46" d="M126.364,76.774l-2.812-1.288-.753.436,1.232,2.189-1.823,1.039L118.24,72.1l2.752-1.559a2.809,2.809,0,0,1,4.068.88,2.655,2.655,0,0,1,.019,2.629l3.318,1.559Zm-4.472-2.461.932-.532a.909.909,0,0,0,.37-1.311.888.888,0,0,0-1.3-.346l-.934.532Z" transform="translate(-97.903 -57.932)" fill="#fff"/>
    <path id="Path_47" data-name="Path 47" d="M199.64,40.9l1.2,8.16-2.064.308-.5-3.363L196.9,48.191l-.664.1L194.316,46.6l.492,3.351-2.074.315-1.2-8.159.664-.1,4,3.659L198.971,41Z" transform="translate(-158.587 -33.838)" fill="#fff"/>
    <path id="Path_48" data-name="Path 48" d="M277.223,53.133l-2.109-4.617-.877,3.942L272.19,52l1.761-7.906,2.047.462-.8,3.581,3.392-3,2.379.537-3.538,3.152,2.217,4.849Z" transform="translate(-225.373 -36.475)" fill="#fff"/>
    <path id="Path_49" data-name="Path 49" d="M340.165,69.28l2.367,1.51c2.092,1.309,2.884,3.736,1.558,5.767a4.062,4.062,0,0,1-5.874,1.07l-2.367-1.515Zm-.946,6.74a2.074,2.074,0,0,0,3.06-.617,2.037,2.037,0,0,0-.777-3l-.587-.376-2.288,3.611Z" transform="translate(-278.084 -57.303)" fill="#fff"/>
    <path id="Path_50" data-name="Path 50" d="M106.141,368.41a2.379,2.379,0,0,1,.506,2.217l-.531-.107a1.887,1.887,0,0,0-.375-1.76,1.96,1.96,0,0,0-2.733-.179,1.992,1.992,0,0,0-.268,2.744,1.858,1.858,0,0,0,1.667.655l.017.546a2.33,2.33,0,0,1-2.09-.866,2.524,2.524,0,0,1,.287-3.542,2.484,2.484,0,0,1,3.518.289Z" transform="translate(-84.241 -303.893)" fill="#fff"/>
    <path id="Path_51" data-name="Path 51" d="M134.049,394.307a2.522,2.522,0,0,1,.511,3.512,2.483,2.483,0,0,1-3.487.518,2.522,2.522,0,0,1-.519-3.511,2.474,2.474,0,0,1,3.5-.52Zm-.308.431a1.957,1.957,0,0,0-2.192-.161,1.986,1.986,0,0,0,.487,3.638,1.961,1.961,0,0,0,2.071-.739,1.913,1.913,0,0,0-.366-2.738Z" transform="translate(-107.693 -325.627)" fill="#fff"/>
    <path id="Path_52" data-name="Path 52" d="M169.044,412.321l-1.961,4.532-.187-.083-1.335-4.652-1.445,3.342-.516-.229,1.959-4.532.187.083,1.336,4.659,1.448-3.349Z" transform="translate(-135.461 -339.595)" fill="#fff"/>
    <path id="Path_53" data-name="Path 53" d="M201.833,428.23a1.584,1.584,0,0,0,1.142,1.1.848.848,0,0,0,1.12-.585c.093-.433-.134-.632-.609-1.006l-.476-.367c-.585-.45-.929-.866-.795-1.5a1.338,1.338,0,0,1,1.689-.93,1.8,1.8,0,0,1,1.307,1.126l-.473.222a1.331,1.331,0,0,0-.953-.831.75.75,0,0,0-.984.511.6.6,0,0,0,.019.365c.083.206.234.338.568.6l.47.365c.666.52.949.951.819,1.559a1.406,1.406,0,0,1-1.806.994,2.04,2.04,0,0,1-1.52-1.4Z" transform="translate(-166.718 -351.331)" fill="#fff"/>
    <path id="Path_54" data-name="Path 54" d="M236.554,429l.571.009-.041,2.968a1.293,1.293,0,0,0,1.335,1.462,1.28,1.28,0,0,0,1.357-1.425l.041-2.968.569.009-.04,2.932a1.917,1.917,0,1,1-3.829-.054Z" transform="translate(-195.837 -354.726)" fill="#fff"/>
    <path id="Path_55" data-name="Path 55" d="M272.09,427.342l.561-.1.771,4.278,2.253-.412.091.507-2.816.52Z" transform="translate(-225.291 -353.271)" fill="#fff"/>
    <path id="Path_56" data-name="Path 56" d="M292.88,418.121l-1.608.549-.172-.488,3.767-1.292.172.488-1.615.551,1.388,4.117-.542.185Z" transform="translate(-241.031 -344.713)" fill="#fff"/>
    <path id="Path_57" data-name="Path 57" d="M322.72,410.751l.507-.262,2.2,4.329-.516.262Z" transform="translate(-267.212 -339.422)" fill="#fff"/>
    <path id="Path_58" data-name="Path 58" d="M340.6,390.63l2.914,3.983-.172.123-4.67-1.164,2.148,2.934-.459.346-2.914-3.983.172-.121,4.675,1.169-2.153-2.944Z" transform="translate(-279.409 -323.001)" fill="#fff"/>
    <path id="Path_59" data-name="Path 59" d="M370.319,367.592a2.359,2.359,0,0,1,2.031-.855l-.026.551a1.839,1.839,0,0,0-1.6.649,1.981,1.981,0,1,0,3.015,2.57,1.878,1.878,0,0,0,.394-1.8l-.494-.426-1.073,1.261-.389-.346,1.445-1.694.977.845a2.421,2.421,0,0,1,.1,1.3,2.541,2.541,0,0,1-.588,1.212,2.489,2.489,0,0,1-4.311-.767,2.526,2.526,0,0,1,.527-2.506Z" transform="translate(-306.08 -303.238)" fill="#fff"/>
    <path id="Path_60" data-name="Path 60" d="M373.4,246.24l21.775,1.228L373.4,248.7Z" transform="translate(-309.175 -203.617)" fill="#0f998e"/>
    <path id="Path_61" data-name="Path 61" d="M21.775,248.7,0,247.468l21.775-1.228Z" transform="translate(0 -203.617)" fill="#0f998e"/>
    <path id="Path_62" data-name="Path 62" d="M184.92,240.261h6.106V225.58H184.92Zm4.054-12.419h1.049V238h-1.049Z" transform="translate(-153.114 -186.535)" fill="#0f998e"/>
    <path id="Path_63" data-name="Path 63" d="M279.58,196.3v19.751h6.106V196.309Zm5.1,17.491h-1.049v-15.24h1.049Z" transform="translate(-231.492 -162.325)" fill="#0f998e"/>
    <path id="Path_64" data-name="Path 64" d="M232.25,228.156h6.106V210.94H232.25ZM236.3,213.2h1.049V225.9H236.3Z" transform="translate(-192.303 -174.43)" fill="#0f998e"/>
  </g>
</svg>
