<svg xmlns="http://www.w3.org/2000/svg" width="56.33" height="49.324" viewBox="0 0 56.33 49.324">
  <g id="Icon_1" data-name="Icon 1" transform="translate(-1458.229 584.412)">
    <g id="Group_383" data-name="Group 383" transform="translate(1458.228 -584.412)">
      <path id="Path_491" data-name="Path 491" d="M55.481,18.145,29.362,5.736a1.543,1.543,0,0,0-1.318,0L1.929,18.145a1.535,1.535,0,0,0,0,2.774L28.044,33.327a1.536,1.536,0,0,0,1.318,0L55.481,20.919a1.535,1.535,0,0,0,0-2.774Z" transform="translate(-0.54 -5.588)" fill="#0f75bc"/>
      <path id="Path_492" data-name="Path 492" d="M28.391,58.048a2.056,2.056,0,0,1-.879-.2L1.4,45.443a2.047,2.047,0,1,1,1.757-3.7L28.39,53.734l25.242-11.99a2.047,2.047,0,0,1,1.756,3.7L29.27,57.851A2.058,2.058,0,0,1,28.391,58.048Z" transform="translate(-0.228 -19.187)" fill="#26cec0"/>
      <path id="Path_493" data-name="Path 493" d="M28.391,74.874a2.056,2.056,0,0,1-.879-.2L1.4,62.27a2.048,2.048,0,0,1,1.757-3.7L28.39,70.559l25.243-11.99a2.048,2.048,0,0,1,1.757,3.7L29.27,74.677A2.049,2.049,0,0,1,28.391,74.874Z" transform="translate(-0.228 -25.55)" fill="#26cec0"/>
    </g>
  </g>
</svg>
