<svg xmlns="http://www.w3.org/2000/svg" width="737.909" height="502.3" viewBox="0 0 737.909 502.3">
  <g id="Illustration" transform="translate(-59.753)">
    <g id="Graphics" transform="translate(-0.012)">
      <g id="Layer_6" data-name="Layer 6">
        <path id="Path_402" data-name="Path 402" d="M257.57,113.716H242.908a1.378,1.378,0,1,1,0-2.756H257.57a1.378,1.378,0,1,1,0,2.756Z" transform="translate(466.738 214.406)" fill="#fff"/>
        <path id="Path_403" data-name="Path 403" d="M229.48,171.919v41.668l26.948-.059V149.37Z" transform="translate(443.454 288.625)" fill="#5361f0"/>
        <path id="Path_404" data-name="Path 404" d="M246.748,168.108l-.088-.029v53.778L277.6,221.8V145.09Z" transform="translate(476.651 280.355)" fill="#0f75bc"/>
        <path id="Path_405" data-name="Path 405" d="M238.875,149.33l-.205.176v64.158l23.429-.059V159.828Z" transform="translate(461.212 288.548)" fill="#199b90"/>
        <path id="Path_406" data-name="Path 406" d="M288,141.7l-24.25,20.878v65.83l24.25-.059Z" transform="translate(509.673 273.804)" fill="#0f75bc"/>
        <path id="Path_407" data-name="Path 407" d="M276.387,155.94,257.21,145.12V221.8l19.177-.029V155.94Z" transform="translate(497.036 280.413)" fill="#199b90"/>
        <rect id="Rectangle_257" data-name="Rectangle 257" width="177.081" height="127.496" transform="translate(59.764 374.628)" fill="#f9f9fb"/>
        <rect id="Rectangle_258" data-name="Rectangle 258" width="177.081" height="13.694" transform="translate(59.764 374.628)" fill="#0f75bc"/>
        <rect id="Rectangle_259" data-name="Rectangle 259" width="7.419" height="6.246" transform="translate(68.62 378.352)" fill="#fff"/>
        <rect id="Rectangle_260" data-name="Rectangle 260" width="34.22" height="34.161" transform="translate(106.71 430.137) rotate(180)" fill="#f2f3f7"/>
        <rect id="Rectangle_261" data-name="Rectangle 261" width="34.22" height="34.161" transform="translate(153.422 430.137) rotate(180)" fill="#f2f3f7"/>
        <rect id="Rectangle_262" data-name="Rectangle 262" width="57.825" height="34.161" transform="translate(223.796 430.137) rotate(180)" fill="#f2f3f7"/>
        <rect id="Rectangle_263" data-name="Rectangle 263" width="68.938" height="6.158" transform="translate(72.227 439.579)" fill="#f2f3f7"/>
        <rect id="Rectangle_264" data-name="Rectangle 264" width="152.273" height="3.079" transform="translate(71.523 456.117)" fill="#f2f3f7"/>
        <rect id="Rectangle_265" data-name="Rectangle 265" width="152.273" height="3.079" transform="translate(71.523 467.406)" fill="#f2f3f7"/>
        <rect id="Rectangle_266" data-name="Rectangle 266" width="152.273" height="3.079" transform="translate(72.168 478.666)" fill="#f2f3f7"/>
        <rect id="Rectangle_267" data-name="Rectangle 267" width="76.181" height="3.079" transform="translate(72.813 489.926)" fill="#f2f3f7"/>
        <path id="Path_412" data-name="Path 412" d="M113.62,0H498.57a16.04,16.04,0,0,1,16.04,16.04V502.212H97.58V16.04A16.04,16.04,0,0,1,113.62,0Z" transform="translate(188.586)" fill="#fff"/>
        <path id="Path_413" data-name="Path 413" d="M514.58,44.893V14.456A14.456,14.456,0,0,0,500.153,0H112.036A14.456,14.456,0,0,0,97.58,14.456V44.893Z" transform="translate(188.586)" fill="#0f75bc"/>
        <path id="Path_414" data-name="Path 414" d="M119.557,11.425A5.483,5.483,0,1,1,114.073,6a5.483,5.483,0,0,1,5.483,5.425Z" transform="translate(209.861 11.594)" fill="#fff"/>
        <path id="Path_415" data-name="Path 415" d="M125.787,11.425A5.483,5.483,0,1,1,120.3,6a5.483,5.483,0,0,1,5.483,5.425Z" transform="translate(221.899 11.594)" fill="#fff"/>
        <path id="Path_416" data-name="Path 416" d="M132.017,11.425A5.483,5.483,0,1,1,126.533,6a5.483,5.483,0,0,1,5.483,5.425Z" transform="translate(233.937 11.594)" fill="#fff"/>
        <rect id="Rectangle_269" data-name="Rectangle 269" width="147.406" height="21.288" transform="translate(323.729 272.878)" fill="#199b90"/>
        <rect id="Rectangle_270" data-name="Rectangle 270" width="325.689" height="10.644" transform="translate(323.729 320.117)" fill="#199b90"/>
        <rect id="Rectangle_271" data-name="Rectangle 271" width="325.689" height="10.644" transform="translate(323.729 344.455)" fill="#199b90"/>
        <rect id="Rectangle_272" data-name="Rectangle 272" width="142.831" height="10.644" transform="translate(323.729 368.793)" fill="#199b90"/>
        <rect id="Rectangle_273" data-name="Rectangle 273" width="110.225" height="27.886" transform="translate(213.651 470.309)" fill="#5e6872"/>
        <path id="Path_417" data-name="Path 417" d="M183.1,235.4H72.85a117.291,117.291,0,0,0,23.693-70.727v-43.1h62.868v43.1A117.291,117.291,0,0,0,183.1,235.4Z" transform="translate(140.801 234.908)" fill="#5e6872"/>
        <path id="Path_418" data-name="Path 418" d="M100.613,121.57v43.1A117.291,117.291,0,0,1,76.92,235.4v27.886H92.754V235.4c15.365-20.379,15.776-45.216,15.776-70.727v-43.1Z" transform="translate(148.665 234.908)" fill="#fff" opacity="0.1"/>
        <rect id="Rectangle_274" data-name="Rectangle 274" width="62.839" height="11.758" transform="translate(237.344 356.478)" fill="#525d7a" opacity="0.3"/>
        <path id="Path_419" data-name="Path 419" d="M150.7,104.484v14.661H132.753V104.484a2.493,2.493,0,0,0-2.58-2.463h-16.01a2.492,2.492,0,0,0-2.522,2.492v14.661H93.607V104.514a2.492,2.492,0,0,0-2.522-2.492H77.772a2.492,2.492,0,0,0-2.492,2.492V159.2a6.187,6.187,0,0,0,6.187,6.187h81.459a6.187,6.187,0,0,0,6.216-6.187V104.484a2.522,2.522,0,0,0-2.522-2.492H153.308a2.492,2.492,0,0,0-2.61,2.492Z" transform="translate(145.496 197.072)" fill="#5e6872"/>
        <path id="Path_420" data-name="Path 420" d="M200.113,179.029H74.025a5.865,5.865,0,0,1-5.865-5.865h0a6.011,6.011,0,0,1,5.865-5.865H200.113a6.011,6.011,0,0,1,5.865,5.865h0A5.865,5.865,0,0,1,200.113,179.029Z" transform="translate(131.738 323.271)" fill="#5e6872"/>
        <rect id="Rectangle_275" data-name="Rectangle 275" width="94.39" height="24.485" rx="0.5" transform="translate(483.098 450.985)" fill="#199b90"/>
        <path id="Path_421" data-name="Path 421" d="M257.664,161.094H166.177a3.813,3.813,0,0,1-1.437-.264v2.932a.938.938,0,0,0,.938.938h92.484a.938.938,0,0,0,.938-.938V160.83a3.813,3.813,0,0,1-1.437.264Z" transform="translate(318.358 310.769)" fill="#231f20" opacity="0.15"/>
        <rect id="Rectangle_276" data-name="Rectangle 276" width="22.461" height="24.485" transform="translate(532.536 450.985)" fill="#fff" opacity="0.5"/>
        <rect id="Rectangle_277" data-name="Rectangle 277" width="5.923" height="24.485" transform="translate(564.85 475.47) rotate(180)" fill="#fff" opacity="0.5"/>
        <rect id="Rectangle_278" data-name="Rectangle 278" width="94.39" height="24.485" rx="0.5" transform="translate(479.961 427.497)" fill="#199b90"/>
        <path id="Path_422" data-name="Path 422" d="M256.594,153.084H165.107a3.813,3.813,0,0,1-1.437-.264v2.932a.938.938,0,0,0,.938.938h92.484a.938.938,0,0,0,.938-.938V152.82a3.814,3.814,0,0,1-1.437.264Z" transform="translate(316.291 295.291)" fill="#231f20" opacity="0.15"/>
        <rect id="Rectangle_279" data-name="Rectangle 279" width="22.461" height="24.485" transform="translate(529.399 427.497)" fill="#fff" opacity="0.5"/>
        <rect id="Rectangle_280" data-name="Rectangle 280" width="5.923" height="24.485" transform="translate(561.713 451.982) rotate(180)" fill="#fff" opacity="0.5"/>
        <rect id="Rectangle_281" data-name="Rectangle 281" width="94.39" height="24.485" rx="0.5" transform="translate(477.497 475.792)" fill="#199b90"/>
        <path id="Path_423" data-name="Path 423" d="M255.783,169.573H164.267a3.4,3.4,0,0,1-1.437-.293v2.932a.968.968,0,0,0,.938.938h92.514a.968.968,0,0,0,.938-.938V169.28a3.4,3.4,0,0,1-1.437.293Z" transform="translate(314.667 327.097)" fill="#231f20" opacity="0.15"/>
        <rect id="Rectangle_282" data-name="Rectangle 282" width="22.461" height="24.485" transform="translate(526.936 475.792)" fill="#fff" opacity="0.5"/>
        <rect id="Rectangle_283" data-name="Rectangle 283" width="5.923" height="24.485" transform="translate(559.279 500.277) rotate(180)" fill="#fff" opacity="0.5"/>
        <rect id="Rectangle_287" data-name="Rectangle 287" width="295.222" height="154.737" rx="1.96" transform="translate(262.063 95.534)" fill="#0f75bc"/>
        <rect id="Rectangle_288" data-name="Rectangle 288" width="17.154" height="8.709" transform="translate(276.841 108.055)" fill="#fff"/>
        <rect id="Rectangle_289" data-name="Rectangle 289" width="131.894" height="8.709" transform="translate(406.829 122.012)" fill="#fff"/>
        <rect id="Rectangle_290" data-name="Rectangle 290" width="131.894" height="8.709" transform="translate(406.829 146.585)" fill="#fff"/>
        <rect id="Rectangle_291" data-name="Rectangle 291" width="131.894" height="8.709" transform="translate(406.829 171.128)" fill="#fff"/>
        <rect id="Rectangle_292" data-name="Rectangle 292" width="75.565" height="8.709" transform="translate(406.829 195.701)" fill="#fff"/>
        <rect id="Rectangle_293" data-name="Rectangle 293" width="17.154" height="8.709" transform="translate(276.841 132.099)" fill="#fff"/>
        <rect id="Rectangle_294" data-name="Rectangle 294" width="17.154" height="8.709" transform="translate(276.841 156.173)" fill="#fff"/>
        <rect id="Rectangle_295" data-name="Rectangle 295" width="17.154" height="8.709" transform="translate(276.841 180.218)" fill="#fff"/>
        <rect id="Rectangle_296" data-name="Rectangle 296" width="17.154" height="8.709" transform="translate(276.841 204.263)" fill="#fff"/>
        <rect id="Rectangle_297" data-name="Rectangle 297" width="17.154" height="8.709" transform="translate(276.841 228.308)" fill="#fff"/>
        <path id="Path_429" data-name="Path 429" d="M120,37.69V78.068h0l28.5,28.59a40.319,40.319,0,0,0,11.876-28.5h0A40.407,40.407,0,0,0,120,37.69Z" transform="translate(231.908 72.828)" fill="#fff"/>
        <path id="Path_430" data-name="Path 430" d="M117.359,49.478A40.26,40.26,0,0,0,105.63,78.009h40.378V37.69A40.172,40.172,0,0,0,117.359,49.478Z" transform="translate(204.141 72.827)" fill="#199b90"/>
        <path id="Path_431" data-name="Path 431" d="M145.968,52.14H105.59A40.378,40.378,0,0,0,174.5,80.759Z" transform="translate(204.064 100.749)" fill="#fff"/>
        <rect id="Rectangle_298" data-name="Rectangle 298" width="15.482" height="15.981" transform="matrix(-0.91, -0.414, 0.414, -0.91, 112.536, 486.016)" fill="#ffcebd"/>
        <path id="Path_432" data-name="Path 432" d="M100.612,174.125l-14.6,35.92L51.35,265.583l-16.89-7.624,34.806-65.478,25.921-83.1Z" transform="translate(66.62 211.353)" fill="#4d5068"/>
        <path id="Path_433" data-name="Path 433" d="M58.333,166.035l1.173.528,5.513,13.4,3.079,4.692,9.589,2.639-.029,3.929-11.289.205L31.5,176.738l-.733-4.692,4.809-10.879,3.05-.528L41,161.666l3.079,7.947,10.937,4.662Z" transform="translate(59.49 310.402)" fill="#4d5068"/>
        <path id="Path_434" data-name="Path 434" d="M30.78,172.017l4.78-10.849,3.05-.528,2.375,1.026,3.079,7.947L55,174.275l3.313-8.24,1.173.528L65,179.964l3.079,4.692,9.589,2.639v1H69.34Z" transform="translate(59.51 310.402)" fill="#0f75bc"/>
        <rect id="Rectangle_299" data-name="Rectangle 299" width="15.482" height="15.981" transform="translate(172.716 491.539) rotate(180)" fill="#ffcebd"/>
        <path id="Path_435" data-name="Path 435" d="M51.41,213.007c.909-10.556,2.111-19.236,3.665-22.08l-.235-57.238,7.595-24.309L67.8,174.125,53.14,210.045Z" transform="translate(99.373 211.353)" fill="#231f20" opacity="0.2"/>
        <path id="Path_436" data-name="Path 436" d="M100.013,100.12,79.927,216.678l-8.8,73.688h-16.1s-1.5-69,3.313-78.292l-3.313-79.817h0a50.259,50.259,0,0,1-1.5-24.074h0a17.594,17.594,0,0,1,4.281-8.8l.528-.586Z" transform="translate(101.908 190.91)" fill="#4d5068"/>
        <path id="Path_437" data-name="Path 437" d="M74.634,164.11h1.261l10.468,10.028,16.626,6.3v4.281H54.4l-2.551-4.017V168.831L54.4,167.1h2.58l6.04,6.011,11.876-.147Z" transform="translate(100.223 317.107)" fill="#4d5068"/>
        <path id="Path_438" data-name="Path 438" d="M56.982,167.1l6.04,6.011,11.876-.147-.264-8.855h1.261l10.468,10.028,16.333,6.187H51.85V168.831L54.4,167.1Z" transform="translate(100.223 317.107)" fill="#0f75bc"/>
        <rect id="Rectangle_300" data-name="Rectangle 300" width="15.893" height="15.482" transform="translate(173.42 203.266) rotate(180)" fill="#ffcebd"/>
        <path id="Path_439" data-name="Path 439" d="M67.515,71.657a20.907,20.907,0,0,1-12.785-8.8l13.987,2.932Z" transform="translate(105.788 121.463)" fill="#525d7a" opacity="0.15"/>
        <path id="Path_440" data-name="Path 440" d="M80.075,55.454l.733,8.592s3.284,6.744,6.3,8.445c0,0-.586,2.317-2.17,2.463V86.1a5.4,5.4,0,0,1-5.425,5.454h-5.1a20.937,20.937,0,0,1-19.94-14.661L50.43,64.339l5.865-12.316,14.661-.88A9.3,9.3,0,0,1,80.075,55.454Z" transform="translate(97.479 98.667)" fill="#ffcebd"/>
        <path id="Path_441" data-name="Path 441" d="M91.092,53.131c3.313,3.959.411,9.031-2.932,11.993A23.957,23.957,0,0,1,81.768,69.2a17.858,17.858,0,0,0-2.932,1.173,8.8,8.8,0,0,0-1.7,3.372c-.176.469-.323.938-.528,1.378-.85,1.935-3.753,3.343-3.665,5.6a3.2,3.2,0,0,0,1.5,2.346A7.859,7.859,0,0,1,76.548,85a5.865,5.865,0,0,1,0,4.78,6.3,6.3,0,0,0-.264,4.78c.762,1.349,2.61,2.141,3.607,3.313s2.61,2.141,3.695,3.548c1.583,2.053,1.906,4.9,3.489,6.744a33.487,33.487,0,0,0,6.715,4.574,8.8,8.8,0,0,1,4.428,7.36c-4.516-1.583-10.146.733-13.987-2.111-.7-.528-1.261-1.173-1.965-1.73a29,29,0,0,0-5.659-2.932,13.84,13.84,0,0,1-4.78-4.047,12.931,12.931,0,0,1-5.865.235,18.356,18.356,0,0,1-7.829-2.141,18.8,18.8,0,0,1-4.75-5.1L51.3,99.344c-.616-.909-1.261-1.789-1.847-2.7a24.631,24.631,0,0,1-4.222-16.919,37.211,37.211,0,0,1,6.686-14.1c2.258-3.489,4.545-6.949,6.832-10.41a14.368,14.368,0,0,1,2.932-3.577,11.025,11.025,0,0,1,3.724-1.583,40.2,40.2,0,0,1,13.9-1.114C83.5,49.172,88.277,49.817,91.092,53.131Z" transform="translate(87.107 94.216)" fill="#5e6872"/>
        <path id="Path_442" data-name="Path 442" d="M67.107,124.7,89.6,121.563a20.35,20.35,0,0,0,10.791-5.4l37.826-35.862,4.457-2.932,12.9-5.161,7.067-5.483c2.023-1.877.821-3.372-1.114-3.167l-5.513,4.545-2.58,1.056-1.5-.85,8.8-8.8c0-.7-1.466-1.759-2.141-1.73l-7.946,7.536-1.906-1.671,8.973-9.794c1.173-1.671-1.965-2.229-4.868.44L146.982,62.3l-1.7-.645,5.425-11.231c-.469-.792-2.229.616-2.932,1.056-2.932,1.7-7.36,10.615-7.36,10.615l-2.932.85-1.73-2.786L136.4,56.5l-4.809,4.868L132.2,69.1l-35.07,32.724-31.463,7.3Z" transform="translate(126.927 96.98)" fill="#ffcebd"/>
        <g id="Group_375" data-name="Group 375" transform="translate(157.38 143.682)" opacity="0.15">
          <path id="Path_443" data-name="Path 443" d="M66.217,53.868A12.873,12.873,0,0,0,58.3,49a11.993,11.993,0,0,1,7.213,3.665,6.421,6.421,0,0,1,1.173,2.258A5.864,5.864,0,0,0,66.217,53.868Z" transform="translate(-44.694 -49)" fill="#525d7a"/>
          <path id="Path_444" data-name="Path 444" d="M70.315,102.069a34.337,34.337,0,0,1-6.1-5.337c-1.32-2.053-1.29-4.926-2.61-7.155-.909-1.525-2.258-2.522-3.226-3.959S55.8,83.3,55.214,81.866a6.422,6.422,0,0,1,.85-4.721,5.865,5.865,0,0,0,.645-4.721,7.653,7.653,0,0,0-1.847-2.17,3.343,3.343,0,0,1-1.2-2.522c.205-2.258,3.255-3.284,4.34-5.1l.7-1.29a8.591,8.591,0,0,1,2.316-3.079,19.439,19.439,0,0,1,2.932-.792,26.8,26.8,0,0,0,5.865-2.639,31.5,31.5,0,0,1-4.6,2.7A17.857,17.857,0,0,0,62.281,58.7a8.8,8.8,0,0,0-1.759,3.313c-.176.44-.323.938-.528,1.378-.85,1.935-3.753,3.343-3.665,5.6a3.2,3.2,0,0,0,1.5,2.346,7.859,7.859,0,0,1,2.111,1.935,5.865,5.865,0,0,1,0,4.78,6.3,6.3,0,0,0-.264,4.78c.762,1.349,2.61,2.141,3.607,3.313s2.61,2.141,3.695,3.548c1.583,2.053,1.906,4.9,3.489,6.744a33.486,33.486,0,0,0,6.715,4.574,8.8,8.8,0,0,1,4.428,7.36,23.692,23.692,0,0,0-7.653-.586,10.38,10.38,0,0,0-3.636-5.718Z" transform="translate(-53.66 -37.735)" fill="#525d7a"/>
        </g>
        <path id="Path_445" data-name="Path 445" d="M57.819,99.386l.528-.586,41.668,1.261-1.847,10.732c-15.746-3.841-33.076,17.916-45.362,9.266a50,50,0,0,1,.733-11.876,17.594,17.594,0,0,1,4.281-8.8Z" transform="translate(101.907 190.91)" fill="#525d7a" opacity="0.2"/>
        <path id="Path_446" data-name="Path 446" d="M62.5,66.87s-13.166,4.9-13.811,16.714l15.834,53.28-4.457,30.408c13.84,12.286,34.4-8.328,52.019,4.78L95.108,104.433h0a17.3,17.3,0,0,0,2.4-14.925l-.5-1.73-17.3-13.958Z" transform="translate(94.117 129.212)" fill="#fff"/>
        <path id="Path_447" data-name="Path 447" d="M54.64,70.49l19,.821,11.876,9.471.5,1.642a17.3,17.3,0,0,1-1.232,13.019L58.628,90.752Z" transform="translate(105.614 136.207)" fill="#525d7a" opacity="0.2"/>
        <path id="Path_448" data-name="Path 448" d="M55.7,69.32l32.2,1.349,1.583,19.294L54.09,92.6Z" transform="translate(104.551 133.946)" fill="#fff"/>
        <path id="Path_449" data-name="Path 449" d="M45.289,68.578A10.439,10.439,0,0,1,46.9,61.57a10.263,10.263,0,0,1,2.639-1.994,15.043,15.043,0,0,1,2.551-1.32c4.047-1.554,8.562.235,12.257,2.4a26.918,26.918,0,0,1,6.275,4.926,13.986,13.986,0,0,1,2.258,3.138,3.607,3.607,0,0,1,.411,3.46A88.2,88.2,0,0,1,69.921,84.53a12.052,12.052,0,0,1-9.354,7.829c2.141,7.389-.205,14.251-1.378,20.849a31.14,31.14,0,0,1-3.4-5.337c-1.642-2.932-3.313-5.63-4.868-8.5a56.593,56.593,0,0,1-5.014-11.025C43.97,82.1,45.289,75.176,45.289,68.578Z" transform="translate(86.697 111.435)" fill="#5e6872"/>
        <rect id="Rectangle_301" data-name="Rectangle 301" width="187.813" height="101.428" transform="translate(262.766 400.784)" fill="#fff"/>
        <rect id="Rectangle_302" data-name="Rectangle 302" width="187.813" height="22.608" transform="translate(262.766 400.784)" fill="#4d5068"/>
        <path id="Path_450" data-name="Path 450" d="M94.456,192.4H258.84c-.235,0,.411-36.976,0-40.7-5.659,2.932-9.97,8.8-15.981,11.729a27.271,27.271,0,0,1-16.069,2.932c-5.044-.85-9.178-4.662-14.368-5.014-6.774-.469-11.348,5.044-16.157,8.8-6.774,5.307-15.365,11.729-24.1,13.049a14.309,14.309,0,0,1-13.664-5.865c-4.545-5.483-6.862-10.468-14.661-11.524a24.044,24.044,0,0,0-17.594,4.4c-5.865,4.6-9.413,12.14-16.157,15.306a15.278,15.278,0,0,1-7.741,1.349c-1.73,0-6.128-2.463-7.653-1.144S94.456,190.9,94.456,192.4Z" transform="translate(181.564 293.127)" fill="#0f75bc"/>
        <path id="Path_451" data-name="Path 451" d="M99.2,142.31a2.492,2.492,0,1,1-1.154-2.382A2.492,2.492,0,0,1,99.2,142.31Z" transform="translate(182.103 269.646)" fill="#fff"/>
        <path id="Path_452" data-name="Path 452" d="M103.135,142.132a2.492,2.492,0,1,1-2.492-2.492A2.492,2.492,0,0,1,103.135,142.132Z" transform="translate(189.687 269.824)" fill="#fff"/>
        <circle id="Ellipse_12" data-name="Ellipse 12" cx="2.463" cy="2.463" r="2.463" transform="translate(299.391 409.493)" fill="#fff"/>
        <path id="Path_453" data-name="Path 453" d="M193.949,97.13l-22.021,5.689L167.5,148.533l6.128,60.082,58.44,1.232,4.369-59.408-3.812-47.3-14.31-6.011Z" transform="translate(323.691 187.683)" fill="#acb4c3"/>
        <path id="Path_454" data-name="Path 454" d="M193.949,97.13l-22.021,5.689L167.5,148.533l6.128,60.082,58.44,1.232,4.369-59.408-3.812-47.3-14.31-6.011Z" transform="translate(323.691 187.683)" fill="#4d5068"/>
        <rect id="Rectangle_303" data-name="Rectangle 303" width="15.307" height="19.94" transform="translate(459.552 457.817)" fill="#f6f6f6"/>
        <rect id="Rectangle_304" data-name="Rectangle 304" width="15.307" height="19.94" transform="translate(583.939 457.817)" fill="#f6f6f6"/>
        <path id="Path_455" data-name="Path 455" d="M164.25,156.241l12.609,11.289a19.852,19.852,0,0,0,13.342,5.1h48.559a20,20,0,0,0,12.345-4.252l19.206-15.043-2.375-19.353-40.847,3.226H199.672L164.25,132.05l-3.9,2.727Z" transform="translate(309.875 255.158)" fill="#536dfe"/>
        <path id="Path_456" data-name="Path 456" d="M164.25,171.8H270.311l-2.375-39.087-40.847,3.225H199.672l-35.422-1.671-3.9,1.583Z" transform="translate(309.875 256.433)" fill="#8590a1"/>
        <path id="Path_457" data-name="Path 457" d="M163.356,162.407a44.454,44.454,0,0,1-10.146,21.464V188.8h29.7l.586-6.891a85.567,85.567,0,0,1-4.809-16.186S177.167,158.184,163.356,162.407Z" transform="translate(296.079 311.333)" fill="#4d5068"/>
        <path id="Path_458" data-name="Path 458" d="M183.354,169.2s-24.778-1.5-30.144.235v4.926h29.7Z" transform="translate(296.079 325.774)" fill="#fff"/>
        <rect id="Rectangle_305" data-name="Rectangle 305" width="8.328" height="2.639" transform="translate(459.552 478.724)" fill="#fff"/>
        <rect id="Rectangle_306" data-name="Rectangle 306" width="8.328" height="2.639" transform="translate(458.819 481.774)" fill="#fff"/>
        <rect id="Rectangle_307" data-name="Rectangle 307" width="8.328" height="2.639" transform="translate(457.206 485.674)" fill="#fff"/>
        <path id="Path_459" data-name="Path 459" d="M217.545,162.407a44.454,44.454,0,0,0,10.146,21.464V188.8h-29.7l-.586-6.891a83.362,83.362,0,0,0,4.809-16.186S203.734,158.184,217.545,162.407Z" transform="translate(381.466 311.333)" fill="#4d5068"/>
        <path id="Path_460" data-name="Path 460" d="M197.45,169.2s24.807-1.5,30.144.235v4.926h-29.7Z" transform="translate(381.563 325.774)" fill="#fff"/>
        <rect id="Rectangle_308" data-name="Rectangle 308" width="8.328" height="2.639" transform="translate(590.596 478.724)" fill="#fff"/>
        <rect id="Rectangle_309" data-name="Rectangle 309" width="8.328" height="2.639" transform="translate(591.329 481.774)" fill="#fff"/>
        <rect id="Rectangle_310" data-name="Rectangle 310" width="8.328" height="2.639" transform="translate(592.941 485.674)" fill="#fff"/>
        <path id="Path_461" data-name="Path 461" d="M164.492,216.782h16.655s4.105-53.074,2.2-79.787a5.4,5.4,0,0,0-5.4-4.985h-5.865c-10.849,0-18.385,9-19.148,19.822C150.886,179.865,164.492,216.782,164.492,216.782Z" transform="translate(295.148 255.081)" fill="#8590a1"/>
        <path id="Path_462" data-name="Path 462" d="M220.757,217.4H204.1s-9.53-54.13-8.152-80.374a4.633,4.633,0,0,1,4.6-4.369h6.627a19.148,19.148,0,0,1,19.148,19.822C225.39,179.049,220.757,217.4,220.757,217.4Z" transform="translate(378.401 256.337)" fill="#8590a1"/>
        <path id="Path_463" data-name="Path 463" d="M290.425,133.916H283.8a4.9,4.9,0,0,0-1.144.147h0l-40.847,3.226H214.391L183.1,135.822a5.366,5.366,0,0,0-5.161-3.812h-5.865c-10.849,0-18.385,9-19.148,19.822-1.994,28.033,11.729,64.95,11.729,64.95h16.655s1.642-21.259,2.375-43.632h97.44c2.434,23.018,6.392,45.509,6.392,45.509h16.655s4.633-38.354,5.571-64.921a19.148,19.148,0,0,0-19.324-19.822Z" transform="translate(295.156 255.081)" fill="#0f75bc"/>
        <path id="Path_464" data-name="Path 464" d="M284.786,197.282s-11.729-28.443-14.661-54.042l-37.093,1.026a30.467,30.467,0,0,0-11.025,2.346l-2.258.938-4.4-1.818a32.725,32.725,0,0,0-12.4-2.463H167.465a267.247,267.247,0,0,1-8.005,51.725h8.8s1.642-21.259,2.375-43.632h97.44c2.434,23.018,6.392,45.509,6.392,45.509Z" transform="translate(308.156 276.78)" fill="#191c3c" opacity="0.15"/>
        <path id="Path_465" data-name="Path 465" d="M201.027,137.874H197.3l-6.51,6.275-13.019-7.243,5.571-17.447-18.591-3.079-8.328,29.587a4.75,4.75,0,0,0,4.662,6.187l28.8,6.275,8.122,2.639,8.416-2.58,7.595-4.105.674-6.95a1.554,1.554,0,0,0-1.525-1.7h-8.005l-5.19-2.492h1.114Z" transform="translate(301.864 224.879)" fill="#ffcebd"/>
        <path id="Path_466" data-name="Path 466" d="M195.079,118.1,211.823,97.13l-26.391,6.832a20.086,20.086,0,0,0-13.9,12.755L158.25,153.166l24.455,4.017Z" transform="translate(305.818 187.683)" fill="#4d5068"/>
        <path id="Path_467" data-name="Path 467" d="M231.2,116.38l8.328,31.991a4.75,4.75,0,0,1-4.662,6.187l-27.915,5.073L198.8,162.27l-8.416-2.58-7.565-4.105-.7-6.95a1.554,1.554,0,0,1,1.554-1.7h8.005l5.19-2.492h-2.229l-2.786.44a2.932,2.932,0,0,1-3.2-2.756h0l5.4-2.932,5.4-.235,6.568,6.422,12.169-6.011-5.571-19.881Z" transform="translate(351.917 224.879)" fill="#ffcebd"/>
        <path id="Path_468" data-name="Path 468" d="M198.5,118.1,181.79,97.13l26.391,6.832a20.086,20.086,0,0,1,13.928,12.755l13.283,36.448-24.485,4.017Z" transform="translate(351.304 187.683)" fill="#4d5068"/>
        <path id="Path_469" data-name="Path 469" d="M186.79,125.005h0a10.82,10.82,0,0,1-10.82-10.82V95.36h21.67v18.825a10.849,10.849,0,0,1-10.849,10.82Z" transform="translate(340.058 184.262)" fill="#ffcebd"/>
        <path id="Path_470" data-name="Path 470" d="M211.1,103.378c-.44,5.513-.674,11.964-6.07,15.1a4.867,4.867,0,0,1-1.349.557,5.247,5.247,0,0,1-1.173,0,12.2,12.2,0,0,1-4.662-1.32,6.1,6.1,0,0,0-1.554-.674c-1.818-.352-3.284,1.32-4.809,2.375a12.345,12.345,0,0,1-10.058.762c-1.935-.5-4.076-1.525-4.4-3.489-.147-1,.235-2.053-.176-2.932a4.721,4.721,0,0,0-1.642-1.671c-1.437-1.144-1.32-3.4-1.378-5.1V102.85a11.73,11.73,0,0,0,0-2.023,23.914,23.914,0,0,1-.586-2.4c0-1,.411-1.32.733-2.111s.147-1.466.528-2.141,1.144-1.466,1.671-2.229,1-2.023,1.613-2.932c.909-1.525,1.906-3.46,3.753-3.988a4.926,4.926,0,0,1,1.319,0,12.9,12.9,0,0,1,2.141.205,1.32,1.32,0,0,0,1.378-.323,7.215,7.215,0,0,0,1.114-1.2,2.639,2.639,0,0,1,.909-1.056,7.624,7.624,0,0,1,5.865-.586,7.416,7.416,0,0,0,1.056.352,5.133,5.133,0,0,0,1.642,0,15.827,15.827,0,0,1,1.642,0,7.887,7.887,0,0,1,1.642,0,8.5,8.5,0,0,1,1.789.469c.616.147,1.642.235,2.463.411a4.516,4.516,0,0,1,2.258,1,4.37,4.37,0,0,1,.674.792,10.585,10.585,0,0,1,2.2,5.865,3.4,3.4,0,0,0,0,1.437c.264.674.968,1.085,1.319,1.7.85,1.466-.352,3.313,0,4.985a6.184,6.184,0,0,0,.411,1.437,10.205,10.205,0,0,1-.264,2.874Z" transform="translate(334.783 157.918)" fill="#5e6872"/>
        <path id="Path_471" data-name="Path 471" d="M180.884,104.186A4.956,4.956,0,0,1,175.4,100.4s-3.313-8.8,0-9.383c0,0,7.008,4.574,7.008,6.6A31.14,31.14,0,0,1,180.884,104.186Z" transform="translate(336.112 175.876)" fill="#ffcebd"/>
        <path id="Path_472" data-name="Path 472" d="M184.856,104.186a4.956,4.956,0,0,0,5.483-3.783s3.343-8.8,0-9.383c0,0-6.979,4.574-6.979,6.6a31.641,31.641,0,0,0,1.5,6.568Z" transform="translate(354.337 175.876)" fill="#ffcebd"/>
        <path id="Path_473" data-name="Path 473" d="M196.492,127.26l-.381.205a13.2,13.2,0,0,1-6.568,1.759h0a13.518,13.518,0,0,1-6.862-1.906h0a16.039,16.039,0,0,1-7.741-13.752V87h29.645v26.391a16.069,16.069,0,0,1-8.093,13.87Z" transform="translate(338.067 168.109)" fill="#ffcebd"/>
        <path id="Path_474" data-name="Path 474" d="M209.8,88.915a7.477,7.477,0,0,0-2.522-2.053,25.6,25.6,0,0,0-30.408,4.9,13.634,13.634,0,0,0-2.551,3.783,17.242,17.242,0,0,0,0,10.468h-.469a19.059,19.059,0,0,0,3.871-.645l.41-.176a1.378,1.378,0,0,0,.674-1.173c0-.5-.411-1,0-1.5a3.883,3.883,0,0,1,1.671-.821,6.422,6.422,0,0,0,4.076-3.284,8.8,8.8,0,0,0,1.261-2.756c0-.264,0-.85.469-.557a.938.938,0,0,1,.381.44,3.7,3.7,0,0,0,2.375,1.935,6.618,6.618,0,0,1,1.437.411,4.662,4.662,0,0,0,2.727-.5c-.147,0,.176.968.205,1.085a7.858,7.858,0,0,0,3.284,2.932,6.652,6.652,0,0,0,1,.557,6.393,6.393,0,0,0,2.229.293h2.522a8.533,8.533,0,0,1,3.548.235,3.285,3.285,0,0,1,.968.586,2.053,2.053,0,0,1,.7,1.437.967.967,0,0,0,0,.381.469.469,0,0,0,.44,0c.674,0,1.114-.762,1.437-1.378a12.078,12.078,0,0,0,.7-1.965A12.14,12.14,0,0,1,211,99.764a8.445,8.445,0,0,0,.7-2.551,16.244,16.244,0,0,0-1.906-8.3Z" transform="translate(335.29 162.118)" fill="#5e6872"/>
        <path id="Path_475" data-name="Path 475" d="M253.038,145.752H170.787a6.627,6.627,0,0,1-5.865-3.812l-2.053-4.34h98.319l-2.023,4.34A6.685,6.685,0,0,1,253.038,145.752Z" transform="translate(314.745 265.882)" fill="#f5f7f9"/>
        <rect id="Rectangle_311" data-name="Rectangle 311" width="92.514" height="59.584" rx="2.05" transform="translate(480.4 347.886)" fill="#f9fafb"/>
        <path id="Path_476" data-name="Path 476" d="M190.535,133.778a6.6,6.6,0,1,1-6.568-6.568,6.6,6.6,0,0,1,6.568,6.568Z" transform="translate(342.705 245.806)" fill="#fff"/>
        <path id="Path_477" data-name="Path 477" d="M223.76,147.29V180.6h0l23.458,23.458a33.282,33.282,0,0,0,9.794-23.458h0A33.311,33.311,0,0,0,223.76,147.29Z" transform="translate(432.401 284.606)" fill="#5e6872"/>
        <path id="Path_478" data-name="Path 478" d="M221.644,157a33.1,33.1,0,0,0-9.794,23.458h33.311V147.29A33.164,33.164,0,0,0,221.644,157Z" transform="translate(409.388 284.606)" fill="#199b90"/>
        <path id="Path_479" data-name="Path 479" d="M245.161,159.2H211.85a33.311,33.311,0,0,0,56.828,23.458Z" transform="translate(409.388 307.619)" fill="#0f75bc"/>
        <path id="Path_408" data-name="Path 408" d="M322.8,105.06H249.814a66.885,66.885,0,0,0,49.2,84.567l17.418,25.247a1.407,1.407,0,0,0,2.287,0l16.127-23.458v-74.3A12.052,12.052,0,0,0,322.8,105.06Z" transform="translate(413.221 203.006)" fill="#525d7a" opacity="0.3"/>
        <path id="Path_409" data-name="Path 409" d="M319.734,245.626l19.206-27.945a67.179,67.179,0,1,0-38.911,2.7l17.418,25.247a1.408,1.408,0,0,0,2.287,0Z" transform="translate(414.966 169.497)" fill="#0f75bc"/>
        <path id="Path_410" data-name="Path 410" d="M335.971,175.94a47.65,47.65,0,1,1,13.984-33.721A47.679,47.679,0,0,1,335.971,175.94Z" transform="translate(427.964 182.678)" fill="#fff" opacity="0.1"/>
        <path id="Path_411" data-name="Path 411" d="M290.3,155.793h-19.06a7.976,7.976,0,0,1-7.946-7.946V143.77h11.319v.7h15.658a5.483,5.483,0,0,0,5.483-5.454,3.577,3.577,0,0,0-3.577-3.577H278.157a14.867,14.867,0,0,1-14.867-14.867v-2.023a16.8,16.8,0,0,1,16.773-16.773h19.03a7.946,7.946,0,0,1,7.946,7.946v4.6H295.75v-1.261H280.033a5.483,5.483,0,0,0-5.454,5.483v2.023a3.577,3.577,0,0,0,3.548,3.577h14.016A14.867,14.867,0,0,1,307.01,139.02,16.8,16.8,0,0,1,290.3,155.793Z" transform="translate(444.785 196.668)" fill="#fff"/>
        <rect id="Rectangle_256" data-name="Rectangle 256" width="11.319" height="66.592" transform="translate(724.319 292.935)" fill="#fff"/>
      </g>
    </g>
  </g>
</svg>
