<svg id="Illustration" xmlns="http://www.w3.org/2000/svg" width="767.685" height="502" viewBox="0 0 767.685 502">
  <g id="Graphics" transform="translate(0 0)">
    <g id="Layer_6" data-name="Layer 6">
      <path id="Path_200" data-name="Path 200" d="M265.007,238.876l.64.32c6.512,3.11,9.971,2.587,16.337-.349a67.1,67.1,0,0,0,16.366-10.172,34.234,34.234,0,0,0,11.86-20.867,7.293,7.293,0,0,0-.872-5.318,5.815,5.815,0,0,0-6.86-1.424,20.58,20.58,0,0,0-6.1,4.447,7.034,7.034,0,0,1-2.674,1.715,2.529,2.529,0,0,1-2.907-.959c-.843-1.482.61-3.2,1.919-4.3,3.052-2.528,5.814-4.011,9.1-6.248a29.793,29.793,0,0,0,9.913-10.666,15.691,15.691,0,0,0,.407-14.153,8.719,8.719,0,0,0-2.907-3.313,10.351,10.351,0,0,0-7.7-.785,72.092,72.092,0,0,1-7.7,1.8c-6.221.639-8.721-3.72-8.547-9.445,0-3.836,1.308-7.585,1.541-11.393a17.436,17.436,0,0,0-9.07-16.827c-6.1-2.906-14.535-.145-16.831,6.248-2.384,6.975,2.907,14.764-.523,21.419a20.81,20.81,0,0,1-5.814,6.423c-3.4,2.093-8.314-.378-12.3-.2a3.721,3.721,0,0,0-2.471.814,3.487,3.487,0,0,0-.756,1.773,14.733,14.733,0,0,0,4.448,13.4c4.1,3.749,11.25,5.638,12.994,11.625,1.076,3.633.61,12.7-5.174,11.8-2.18-.349-3.634-2.5-5.814-3.2a5.814,5.814,0,0,0-6.686,3.284,10.169,10.169,0,0,0,.2,7.934,33.365,33.365,0,0,0,7.616,10.317C252.885,228.821,256.9,235.04,265.007,238.876Z" transform="translate(-238.107 247.401)" fill="#fff"/>
      <rect id="Rectangle_16" data-name="Rectangle 16" width="2.849" height="97.738" transform="translate(34.109 401.676)" fill="#4d5068"/>
      <path id="Path_201" data-name="Path 201" d="M263.283,165.714,280.7,148.305l-2.035-2.005-15.378,15.374L247.876,146.3l-2.006,2.005Z" transform="translate(-227.75 278.887)" fill="#4d5068"/>
      <path id="Path_202" data-name="Path 202" d="M263.283,177.044,280.7,159.635l-2.035-2.005-15.378,15.4-15.407-15.4-2.006,2.005Z" transform="translate(-227.75 300.485)" fill="#4d5068"/>
      <path id="Path_203" data-name="Path 203" d="M58.8,500.692H588.451V5.813A5.813,5.813,0,0,0,582.637,0H64.614A5.813,5.813,0,0,0,58.8,5.813Z" transform="translate(8.303 0)" fill="#fff"/>
      <path id="Path_204" data-name="Path 204" d="M58.8,36.881V6.83A6.831,6.831,0,0,1,65.545,0H581.62a6.831,6.831,0,0,1,6.831,6.83V36.881Z" transform="translate(8.303 0)" fill="#0f75bc"/>
      <path id="Path_205" data-name="Path 205" d="M68.88,8.974A4.535,4.535,0,1,0,73.415,4.44,4.534,4.534,0,0,0,68.88,8.974Z" transform="translate(489.502 8.464)" fill="#fff"/>
      <path id="Path_206" data-name="Path 206" d="M74.02,9.012a4.534,4.534,0,1,0,1.307-3.243A4.563,4.563,0,0,0,74.02,9.012Z" transform="translate(469.362 8.426)" fill="#fff"/>
      <path id="Path_207" data-name="Path 207" d="M79.241,9.012a4.534,4.534,0,1,0,1.307-3.243A4.534,4.534,0,0,0,79.241,9.012Z" transform="translate(449.025 8.426)" fill="#fff"/>
      <rect id="Rectangle_17" data-name="Rectangle 17" width="35.349" height="35.34" transform="translate(477.481 86.52)" fill="#f9f9fb"/>
      <rect id="Rectangle_18" data-name="Rectangle 18" width="6.221" height="6.219" transform="translate(506.609 86.52)" fill="#cce0ef"/>
      <rect id="Rectangle_19" data-name="Rectangle 19" width="35.349" height="35.34" transform="translate(430.126 86.52)" fill="#f9f9fb"/>
      <rect id="Rectangle_20" data-name="Rectangle 20" width="6.221" height="6.219" transform="translate(459.254 86.52)" fill="#cce0ef"/>
      <rect id="Rectangle_21" data-name="Rectangle 21" width="35.349" height="35.34" transform="translate(382.772 86.52)" fill="#199b90"/>
      <rect id="Rectangle_22" data-name="Rectangle 22" width="35.349" height="35.34" transform="translate(335.417 86.52)" fill="#f9f9fb"/>
      <rect id="Rectangle_23" data-name="Rectangle 23" width="35.349" height="35.34" transform="translate(477.51 130.724)" fill="#f9f9fb"/>
      <rect id="Rectangle_24" data-name="Rectangle 24" width="35.349" height="35.34" transform="translate(430.155 130.724)" fill="#f9f9fb"/>
      <rect id="Rectangle_25" data-name="Rectangle 25" width="35.349" height="35.34" transform="translate(382.801 130.724)" fill="#f9f9fb"/>
      <rect id="Rectangle_26" data-name="Rectangle 26" width="35.349" height="35.34" transform="translate(335.446 130.724)" fill="#f9f9fb"/>
      <rect id="Rectangle_27" data-name="Rectangle 27" width="35.349" height="35.34" transform="translate(477.539 174.928)" fill="#f9f9fb"/>
      <rect id="Rectangle_28" data-name="Rectangle 28" width="35.349" height="35.34" transform="translate(525.097 86.52)" fill="#f9f9fb"/>
      <rect id="Rectangle_29" data-name="Rectangle 29" width="35.349" height="35.34" transform="translate(525.126 130.724)" fill="#f9f9fb"/>
      <rect id="Rectangle_30" data-name="Rectangle 30" width="35.349" height="35.34" transform="translate(525.155 174.928)" fill="#f9f9fb"/>
      <rect id="Rectangle_31" data-name="Rectangle 31" width="35.349" height="35.34" transform="translate(430.184 174.928)" fill="#f9f9fb"/>
      <rect id="Rectangle_32" data-name="Rectangle 32" width="35.349" height="35.34" transform="translate(382.83 174.928)" fill="#f9f9fb"/>
      <rect id="Rectangle_33" data-name="Rectangle 33" width="35.349" height="35.34" transform="translate(335.475 174.928)" fill="#f9f9fb"/>
      <rect id="Rectangle_34" data-name="Rectangle 34" width="6.221" height="6.219" transform="translate(554.225 86.52)" fill="#cce0ef"/>
      <rect id="Rectangle_35" data-name="Rectangle 35" width="6.221" height="6.219" transform="translate(364.545 86.52)" fill="#cce0ef"/>
      <rect id="Rectangle_36" data-name="Rectangle 36" width="6.221" height="6.219" transform="translate(506.609 130.724)" fill="#cce0ef"/>
      <rect id="Rectangle_37" data-name="Rectangle 37" width="6.221" height="6.219" transform="translate(459.254 130.724)" fill="#cce0ef"/>
      <rect id="Rectangle_38" data-name="Rectangle 38" width="6.221" height="6.219" transform="translate(554.225 130.724)" fill="#cce0ef"/>
      <rect id="Rectangle_39" data-name="Rectangle 39" width="6.221" height="6.219" transform="translate(364.545 130.724)" fill="#cce0ef"/>
      <rect id="Rectangle_40" data-name="Rectangle 40" width="6.221" height="6.219" transform="translate(411.9 130.724)" fill="#cce0ef"/>
      <rect id="Rectangle_41" data-name="Rectangle 41" width="6.221" height="6.219" transform="translate(506.609 174.928)" fill="#cce0ef"/>
      <rect id="Rectangle_42" data-name="Rectangle 42" width="6.221" height="6.219" transform="translate(459.254 174.928)" fill="#ffdfd6"/>
      <rect id="Rectangle_43" data-name="Rectangle 43" width="6.221" height="6.219" transform="translate(554.225 174.928)" fill="#cce0ef"/>
      <rect id="Rectangle_44" data-name="Rectangle 44" width="6.221" height="6.219" transform="translate(364.545 174.928)" fill="#cce0ef"/>
      <rect id="Rectangle_45" data-name="Rectangle 45" width="6.221" height="6.219" transform="translate(411.9 174.928)" fill="#ffdfd6"/>
      <rect id="Rectangle_46" data-name="Rectangle 46" width="225.058" height="353.228" transform="translate(91.958 86.52)" fill="#f9fafc"/>
      <rect id="Rectangle_47" data-name="Rectangle 47" width="29.273" height="6.743" transform="translate(276.405 104.19)" fill="#dfe2ec"/>
      <rect id="Rectangle_48" data-name="Rectangle 48" width="31.163" height="133.398" transform="translate(236.289 115.786)" fill="#eceef4"/>
      <rect id="Rectangle_49" data-name="Rectangle 49" width="31.163" height="242.964" transform="translate(195.213 115.786)" fill="#eceef4"/>
      <rect id="Rectangle_50" data-name="Rectangle 50" width="31.163" height="185.391" transform="translate(195.213 115.786)" fill="#199b90"/>
      <rect id="Rectangle_51" data-name="Rectangle 51" width="31.163" height="156.735" transform="translate(154.138 115.786)" fill="#eceef4"/>
      <rect id="Rectangle_52" data-name="Rectangle 52" width="31.163" height="41.502" transform="translate(154.138 115.786)" fill="#199b90"/>
      <rect id="Rectangle_53" data-name="Rectangle 53" width="31.163" height="103.87" transform="translate(113.062 115.786)" fill="#eceef4"/>
      <rect id="Rectangle_54" data-name="Rectangle 54" width="31.163" height="72.453" transform="translate(113.062 115.786)" fill="#199b90"/>
      <rect id="Rectangle_55" data-name="Rectangle 55" width="31.163" height="73.906" transform="translate(236.289 115.786)" fill="#199b90"/>
      <rect id="Rectangle_56" data-name="Rectangle 56" width="29.273" height="6.743" transform="translate(276.405 121.889)" fill="#dfe2ec"/>
      <rect id="Rectangle_57" data-name="Rectangle 57" width="29.273" height="6.743" transform="translate(276.405 139.588)" fill="#dfe2ec"/>
      <rect id="Rectangle_58" data-name="Rectangle 58" width="29.273" height="6.743" transform="translate(276.405 157.287)" fill="#dfe2ec"/>
      <rect id="Rectangle_59" data-name="Rectangle 59" width="29.273" height="6.743" transform="translate(276.405 174.987)" fill="#dfe2ec"/>
      <rect id="Rectangle_60" data-name="Rectangle 60" width="29.273" height="6.743" transform="translate(276.405 192.686)" fill="#dfe2ec"/>
      <rect id="Rectangle_61" data-name="Rectangle 61" width="29.273" height="6.743" transform="translate(276.405 210.414)" fill="#dfe2ec"/>
      <rect id="Rectangle_62" data-name="Rectangle 62" width="29.273" height="6.743" transform="translate(276.405 228.113)" fill="#dfe2ec"/>
      <rect id="Rectangle_63" data-name="Rectangle 63" width="29.273" height="6.743" transform="translate(276.405 245.812)" fill="#dfe2ec"/>
      <rect id="Rectangle_64" data-name="Rectangle 64" width="29.273" height="6.743" transform="translate(276.405 263.512)" fill="#dfe2ec"/>
      <rect id="Rectangle_65" data-name="Rectangle 65" width="29.273" height="6.743" transform="translate(276.405 281.211)" fill="#dfe2ec"/>
      <rect id="Rectangle_66" data-name="Rectangle 66" width="29.273" height="6.743" transform="translate(276.405 298.91)" fill="#dfe2ec"/>
      <rect id="Rectangle_67" data-name="Rectangle 67" width="29.273" height="6.743" transform="translate(276.405 316.638)" fill="#dfe2ec"/>
      <rect id="Rectangle_68" data-name="Rectangle 68" width="29.273" height="6.743" transform="translate(276.405 334.337)" fill="#dfe2ec"/>
      <rect id="Rectangle_69" data-name="Rectangle 69" width="29.273" height="6.743" transform="translate(276.405 352.036)" fill="#dfe2ec"/>
      <rect id="Rectangle_70" data-name="Rectangle 70" width="29.273" height="6.743" transform="translate(276.405 369.736)" fill="#dfe2ec"/>
      <rect id="Rectangle_71" data-name="Rectangle 71" width="29.273" height="6.743" transform="translate(276.405 387.435)" fill="#dfe2ec"/>
      <rect id="Rectangle_72" data-name="Rectangle 72" width="29.273" height="6.743" transform="translate(276.405 405.134)" fill="#dfe2ec"/>
      <rect id="Rectangle_73" data-name="Rectangle 73" width="29.273" height="6.743" transform="translate(276.405 422.833)" fill="#dfe2ec"/>
      <rect id="Rectangle_74" data-name="Rectangle 74" width="225.058" height="123.749" rx="1.68" transform="translate(336.725 311.349)" fill="#f9fafc"/>
      <rect id="Rectangle_75" data-name="Rectangle 75" width="120.523" height="6.743" transform="translate(349.225 329.019)" fill="#f3f4f9"/>
      <rect id="Rectangle_76" data-name="Rectangle 76" width="120.523" height="6.743" transform="translate(349.225 348.898)" fill="#f3f4f9"/>
      <rect id="Rectangle_77" data-name="Rectangle 77" width="120.523" height="6.743" transform="translate(349.225 368.806)" fill="#f3f4f9"/>
      <rect id="Rectangle_78" data-name="Rectangle 78" width="190.291" height="6.743" transform="translate(349.196 388.685)" fill="#f3f4f9"/>
      <rect id="Rectangle_79" data-name="Rectangle 79" width="190.291" height="6.743" transform="translate(349.196 408.592)" fill="#f3f4f9"/>
      <ellipse id="Ellipse_1" data-name="Ellipse 1" cx="27.872" cy="27.879" rx="27.872" ry="27.879" transform="translate(484.588 385.039) rotate(-99.25)" fill="rgba(0,102,173,0.2)"/>
      <path id="Path_208" data-name="Path 208" d="M213.535,168l9.68,4.3,15.378,3.865a4.36,4.36,0,0,1,3.43,4.272h0l-45.2-.2,1.1-7.934,6.57-4.3Z" transform="translate(-46.49 320.253)" fill="#ffcebd"/>
      <path id="Path_209" data-name="Path 209" d="M217.856,172.928l5.2-3.488,15.174,2.587a6.452,6.452,0,0,1,3.75,5.667h0l-45.2-.2,1.1-7.934,3.692,3.255H208C211,173.305,215.181,174.41,217.856,172.928Z" transform="translate(-46.334 322.998)" fill="#4d5068"/>
      <path id="Path_210" data-name="Path 210" d="M206.62,184.092l13.634-3.458v-18.8H206.62Z" transform="translate(-53.209 308.492)" fill="#ffcebd"/>
      <path id="Path_211" data-name="Path 211" d="M205.87,168.3s86.4-31.242,96.454-27.377c0,0,12.878,0,15.61,20.344l-.378,44.437H300.638l-4.477-33.8a3.6,3.6,0,0,0-5.174-2.034l-52.326,29.063Z" transform="translate(-148.709 268.014)" fill="#0f75bc"/>
      <path id="Path_212" data-name="Path 212" d="M255.437,152.85l52.326,32.172a10.491,10.491,0,0,1,5,8.922v3.11A12.266,12.266,0,0,1,300.5,209.319L229.507,205.8V185.255s-21.744-8.457-20.669-26.563Z" transform="translate(-152.056 291.373)" fill="#0f75bc"/>
      <path id="Path_213" data-name="Path 213" d="M273.149,163.33,237.48,189.341h0l39.477-3.517V165.161Z" transform="translate(-199.621 311.351)" fill="#ffcebd"/>
      <path id="Path_214" data-name="Path 214" d="M273.032,163.33l3.808,1.831v8.719h0a7.909,7.909,0,0,0-7.471.291l-17.442,13.4A8.054,8.054,0,0,1,247.1,189.2H237.48Z" transform="translate(-199.505 311.351)" fill="#4d5068"/>
      <path id="Path_215" data-name="Path 215" d="M246.623,115.391s-2.907,16.217,3.692,25.808l-22.965-2.122,9.157-29.237Z" transform="translate(-143.532 209.385)" fill="#ffcebd"/>
      <path id="Path_216" data-name="Path 216" d="M223.426,126.758a19.324,19.324,0,0,1,1.948-5.289,34.874,34.874,0,0,1,9.855-13.834,67.321,67.321,0,0,0,6.279-4.185l1.366.814,2.5.436a7.558,7.558,0,0,1,5.61,4.476,6.509,6.509,0,0,1-1.424,6.917,19.36,19.36,0,0,1-3.866,2.354,16.77,16.77,0,0,0-6.715,6.859,22.554,22.554,0,0,1-1.657,3.081,14.537,14.537,0,0,1-9.448,4.534,4.275,4.275,0,0,1-2.006,0,2.7,2.7,0,0,1-1.221-.9A6.392,6.392,0,0,1,223.426,126.758Z" transform="translate(-132.835 197.204)" fill="#5e6872"/>
      <path id="Path_217" data-name="Path 217" d="M227.212,114.94a91.892,91.892,0,0,1,8.227-8.254,8.866,8.866,0,0,1,2.907-1.8,8.228,8.228,0,0,1,3.372,0,11.434,11.434,0,0,0,2.238,0,7.676,7.676,0,0,1,6.221,2.267h0a5.172,5.172,0,0,1,.669,6.19c-1.541,2.906,1.773,6.975,1.308,10.2,0,.61-2.762.639-2.907,1.279a23.247,23.247,0,0,1-1.628,6.452,7.732,7.732,0,0,1-4.738,4.418,10.031,10.031,0,0,1-7.209-1.511,33.634,33.634,0,0,1-8.343-6.51,9.5,9.5,0,0,1-3.2-7.963A10.956,10.956,0,0,1,227.212,114.94Z" transform="translate(-135.952 199.605)" fill="#ffcebd"/>
      <path id="Path_218" data-name="Path 218" d="M242.822,132.189c4.8,14.764-22.006,94.308-22.006,94.308,11.453,15.142,39.07-6.074,56.86-2.209,0,0-.2-33.393,6.541-48.331l9.07-14.793a9.618,9.618,0,0,0-.436-10.753l-17.122-23.454-24.535-9.3a5.146,5.146,0,0,0-5.814,1.511h0a13.715,13.715,0,0,0-2.558,13.02Z" transform="translate(-168.946 223.626)" fill="#444b52"/>
      <path id="Path_219" data-name="Path 219" d="M226.023,167.053c-.436-10.986,3.517-21.739,3.779-32.725.233-8.544-1.512-18.019,3.547-24.878,4.186-5.813,11.831-7.614,18.866-7.76a26.169,26.169,0,0,1,10.145,1.511,16.484,16.484,0,0,1,5.32,3.575c.843.814,1.744,1.569,1.337,2.645s-2.064,1.86-2.907,2.209-2.645.581-3.953.959c-3.11.9-3.314,3.2-3.75,6.016a82.33,82.33,0,0,0-.843,10,29.36,29.36,0,0,1-.291,3.923,8.713,8.713,0,0,1-.581,1.889,15.782,15.782,0,0,1-4.942,5.26,10.23,10.23,0,0,0-3.866,4.941c-.523,2.354.378,4.883-.262,7.353-1.017,3.923-4.564,6.626-7.122,9.765a30.744,30.744,0,0,0-6.25,16.856c-.523,6.045-5.523,13.543-6.512,18.164C223.436,187.251,226.43,177.457,226.023,167.053Z" transform="translate(-156.624 193.79)" fill="#5e6872"/>
      <path id="Path_220" data-name="Path 220" d="M306.79,117.286l-10.116,12.962a4.59,4.59,0,0,0-.61,1.1l-3.924,11.364-37.384,22.407-46.512-20.111a8.867,8.867,0,0,0-11.192,3.662h0a8.921,8.921,0,0,0,4.419,12.759l49.884,19.588a6.135,6.135,0,0,0,5.959-.843l40.174-31.1h.291a4.942,4.942,0,0,0,4.738-3.633l1.337-5.057a9.037,9.037,0,0,0,1.134-5.813c-.436-2.238-1.831-6.626-1.831-6.975l6.773-9.62-.552-1.046a1.745,1.745,0,0,0-2.587.349Z" transform="translate(-111.576 222.108)" fill="#ffcebd"/>
      <path id="Path_221" data-name="Path 221" d="M223.825,130.109a9.536,9.536,0,0,1,12.035-3.953l25.523,8.719c2.384,5.26-9.564,13.078-8.721,21.39l-24.244-12.555a9.532,9.532,0,0,1-4.593-13.6Z" transform="translate(-140.908 238.987)" fill="#444b52"/>
      <rect id="Rectangle_80" data-name="Rectangle 80" width="222.471" height="79.138" transform="translate(338.033 219.656)" fill="#f9f9fb"/>
      <rect id="Rectangle_81" data-name="Rectangle 81" width="63.459" height="61.962" transform="translate(488.237 228.258)" fill="#fff"/>
      <rect id="Rectangle_82" data-name="Rectangle 82" width="134.506" height="10.404" transform="translate(345.068 236.716)" fill="#fff"/>
      <rect id="Rectangle_83" data-name="Rectangle 83" width="134.506" height="10.404" transform="translate(344.836 254.241)" fill="#fff"/>
      <rect id="Rectangle_84" data-name="Rectangle 84" width="72.413" height="10.404" transform="translate(406.667 271.794)" fill="#fff"/>
      <g id="Group_11" data-name="Group 11" transform="translate(318.733 452.996)">
        <path id="Path_222" data-name="Path 222" d="M160.965,197.261a20.11,20.11,0,1,0-20.115-20.11,20.113,20.113,0,0,0,20.115,20.11Zm0-36.666A16.581,16.581,0,1,1,144.38,177.15,16.583,16.583,0,0,1,160.965,160.6Z" transform="translate(-140.85 -157.04)" fill="#e6e7e8"/>
        <path id="Path_225" data-name="Path 225" d="M160.854,197.23a19.781,19.781,0,0,0,7.787-1.583,20.109,20.109,0,0,0,10.694-26.338,20.5,20.5,0,0,0-4.309-6.409,19.441,19.441,0,0,0-6.411-4.282,20.224,20.224,0,0,0-15.573,0,19.6,19.6,0,0,0-6.385,4.282l2.6,2.595a16.43,16.43,0,0,1,5.191-3.555,16.667,16.667,0,0,1,12.978,0,16.43,16.43,0,0,1,5.191,3.555,17,17,0,0,1,3.556,5.19,16.681,16.681,0,0,1,0,12.974,17.309,17.309,0,0,1-3.556,5.19,16.43,16.43,0,0,1-5.191,3.555,16.667,16.667,0,0,1-12.978,0,16.429,16.429,0,0,1-5.191-3.555,16.842,16.842,0,0,1-3.556-5.19,16.6,16.6,0,0,1-1.3-6.461h-3.53a20.136,20.136,0,0,0,12.277,18.528,19.781,19.781,0,0,0,7.709,1.505Z" transform="translate(-140.739 -157.059)" fill="#0f75bc"/>
      </g>
      <g id="Group_12" data-name="Group 12" transform="translate(274.25 452.996)">
        <path id="Path_223" data-name="Path 223" d="M177.835,197.261a20.11,20.11,0,1,0-20.115-20.11,20.113,20.113,0,0,0,20.115,20.11Zm0-36.666A16.581,16.581,0,1,1,161.25,177.15,16.583,16.583,0,0,1,177.835,160.6Z" transform="translate(-157.694 -157.04)" fill="#e6e7e8"/>
        <path id="Path_226" data-name="Path 226" d="M177.87,197.245a19.652,19.652,0,0,0,7.787-1.583,20.112,20.112,0,0,0,6.411-32.747,20.3,20.3,0,0,0-14.223-5.864v3.529a16.473,16.473,0,0,1,11.706,28.206,16.146,16.146,0,0,1-5.191,3.555,16.587,16.587,0,0,1-23.1-15.284h-3.53a19.768,19.768,0,0,0,1.583,7.785,20.19,20.19,0,0,0,10.693,10.691,19.781,19.781,0,0,0,7.864,1.713Z" transform="translate(-157.729 -157.05)" fill="#199b90"/>
      </g>
      <g id="Group_13" data-name="Group 13" transform="translate(229.819 452.996)">
        <path id="Path_224" data-name="Path 224" d="M194.705,197.261a20.11,20.11,0,1,0-20.115-20.11,20.113,20.113,0,0,0,20.115,20.11Zm0-36.666a16.558,16.558,0,1,1-11.726,4.84,16.583,16.583,0,0,1,11.726-4.84Z" transform="translate(-174.59 -157.04)" fill="#e6e7e8"/>
        <path id="Path_227" data-name="Path 227" d="M187.392,195.647l1.376-3.244a16.626,16.626,0,0,1-8.825-21.8,16.139,16.139,0,0,1,3.556-5.19,16.428,16.428,0,0,1,5.191-3.555,16.633,16.633,0,0,1,21.8,8.823l3.244-1.375a20.058,20.058,0,0,0-4.309-6.409,19.6,19.6,0,0,0-6.385-4.282,20.224,20.224,0,0,0-15.573,0,19.6,19.6,0,0,0-6.385,4.282,20.053,20.053,0,0,0,6.385,32.67Z" transform="translate(-175.115 -156.17)" fill="#5e6872"/>
      </g>
      <rect id="Rectangle_85" data-name="Rectangle 85" width="25.378" height="83.236" transform="translate(571.376 259.704)" fill="#231f20" opacity="0.12"/>
      <path id="Path_228" data-name="Path 228" d="M119.548,55.159a8.05,8.05,0,0,0-4.244-5.406l2.907-2.383a16.455,16.455,0,0,0-3.779.523,24.71,24.71,0,0,0-3.459,1.569c-1.715.872-2.645.988-3.488,2.906s-1.831,3.836-2.733,5.813a20.047,20.047,0,0,0-1.047,2.587c-.407,1.308-1.919,2.674-2.006,4.04s1.25,2.267,1.163,3.4a17.428,17.428,0,0,0,0,2.906,18.425,18.425,0,0,0,.959,3.72,13.484,13.484,0,0,0,3.372,6.655,11.862,11.862,0,0,0,6.86,2.906,2.908,2.908,0,0,0,1.628-.378,3.487,3.487,0,0,0,.988-1.337,50.731,50.731,0,0,0,3.4-20.344,23.855,23.855,0,0,0-.523-7.178Z" transform="translate(351.916 90.3)" fill="#ffcebd"/>
      <path id="Path_229" data-name="Path 229" d="M136.647,106.064,125.455,90.748a9.852,9.852,0,0,1-1.8-4.243L116.56,43.87h9.855l10.872,35.253a13.834,13.834,0,0,0,4.186,6.394l8.721,7.556Z" transform="translate(278.653 83.628)" fill="#ffcebd"/>
      <path id="Path_230" data-name="Path 230" d="M102.852,77.14l11.337,15.926a11.623,11.623,0,0,1,.552,12.729L82.1,161.422l-6.308-7.643,21.1-45.716A11.623,11.623,0,0,0,95.265,95.8l-9.8-11.625Z" transform="translate(430.996 147.05)" fill="#ffcebd"/>
      <path id="Path_231" data-name="Path 231" d="M91.739,102.58l-5.2,10.2v11.625L98.8,131.7h0a6.16,6.16,0,0,0-.988-8.108l-.93-.814V112.81Z" transform="translate(416.236 195.545)" fill="#ffcebd"/>
      <rect id="Rectangle_86" data-name="Rectangle 86" width="13.14" height="10.986" transform="translate(501.9 482.615)" fill="#ffcebd"/>
      <path id="Path_232" data-name="Path 232" d="M96.014,173.616h-10.7l-2.006,6.016v2.906a2.907,2.907,0,0,0,2.907,2.906H97.351l11.8-4.476v-2.034a10.433,10.433,0,0,0-4.3-8.428l-6.163-4.447v7.12Z" transform="translate(416.351 316.555)" fill="#5e6872"/>
      <path id="Path_233" data-name="Path 233" d="M86.2,174.228H97.331l11.628-4.388a10.492,10.492,0,0,1,.233,1.889v2.034l-11.8,4.476H86.2a2.907,2.907,0,0,1-2.907-2.906V172.02A2.907,2.907,0,0,0,86.2,174.228Z" transform="translate(416.371 323.761)" fill="#fff"/>
      <rect id="Rectangle_87" data-name="Rectangle 87" width="13.14" height="10.986" transform="translate(433.498 482.615)" fill="#ffcebd"/>
      <path id="Path_234" data-name="Path 234" d="M105.948,106s-2.907,19.123-5,37.607a104.107,104.107,0,0,0-.7,12.061V283.544h13.14s10.145-44.495,12.209-74.168a162.714,162.714,0,0,1,3.6-23.25l13.808-62.107v-15.4Z" transform="translate(333.248 202.065)" fill="#444b52"/>
      <path id="Path_235" data-name="Path 235" d="M124.119,109.225s2.907,16.508,5.145,35.137a63.918,63.918,0,0,1,.436,7.091V281.741l-13.14.233s-11.25-42.751-12.645-75.331a88.363,88.363,0,0,0-2.267-15.374L86.91,141.078V106.9Z" transform="translate(385.338 203.78)" fill="#444b52"/>
      <path id="Path_236" data-name="Path 236" d="M122.77,173.616h10.7l2.006,6.016v2.906a2.907,2.907,0,0,1-2.907,2.906H121.432l-11.8-4.476v-2.034a10.433,10.433,0,0,1,4.3-8.428l5.93-4.447v7.12Z" transform="translate(313.52 316.555)" fill="#5e6872"/>
      <path id="Path_237" data-name="Path 237" d="M132.684,174.228H121.551l-11.628-4.388a10.491,10.491,0,0,0-.233,1.889v2.034l11.8,4.476h11.134a2.907,2.907,0,0,0,2.907-2.906V172.02A2.907,2.907,0,0,1,132.684,174.228Z" transform="translate(313.285 323.761)" fill="#fff"/>
      <path id="Path_238" data-name="Path 238" d="M150.773,70.264l14.709,4.592a31.28,31.28,0,0,1,13.983,8.951l22.82,25.343-21.86,12.788-7.762-11.364s-1.57,68.152,2.093,91.751c0,0-44.884,18.28-74.506,0,0,0,11.163-60.131,2.006-89.949L79,75.176,93.36,60.47,115.744,72.1l5.116-1.8Z" transform="translate(335.748 115.272)" fill="#0f75bc"/>
      <path id="Path_239" data-name="Path 239" d="M126.164,60.8l-1.657-7.76a2.906,2.906,0,0,1,1.047-2.906l4.012-3.284h2.907a57.154,57.154,0,0,1-.959-13.311h.959l5.32,17.757V61.5l-1.744,3.72h-8.4Z" transform="translate(268.148 63.936)" fill="#ffcebd"/>
      <path id="Path_240" data-name="Path 240" d="M96.72,71.579a16.332,16.332,0,0,0,6.25-11.8h18.924s.378,9.823,4.913,11.8Z" transform="translate(359.714 113.957)" fill="#ffcebd"/>
      <path id="Path_241" data-name="Path 241" d="M128.71,69.8a28.1,28.1,0,0,1,.407-6.219A15.371,15.371,0,0,0,127.344,55a18.833,18.833,0,0,0-4.157-5.813,19.422,19.422,0,0,0-13.14-3.662,10.7,10.7,0,0,0-4.186.639c-1.017.407-1.948,1.1-2.907,1.453a13.062,13.062,0,0,1-2.18.436,11.222,11.222,0,0,0-2.907,1.192A7.616,7.616,0,0,0,95.425,51.2a2.906,2.906,0,0,0-.2,3.139c.64.959,1.424.785,2.384,1.075,1.89.581,4.826,2.209,5.2,4.33a5.812,5.812,0,0,1-1.86,4.388,5.812,5.812,0,0,0-1.89,4.359,1.22,1.22,0,0,0,.349.7c.407.32.988,0,1.483.174a1.57,1.57,0,0,1,1.221,1.337c.465,2.209,0,4.447.2,6.626a19.788,19.788,0,0,0,2.674,6.684,13.107,13.107,0,0,0,2.471,3.662,10.582,10.582,0,0,0,3.43,1.976A31.139,31.139,0,0,0,121.675,91.8c6.628,0,5.174-5.813,7.238-10.2a19.846,19.846,0,0,0,1.483-2.906C131.443,75.724,129.175,72.847,128.71,69.8Z" transform="translate(361.271 86.649)" fill="#4d5068"/>
      <g id="Group_10" data-name="Group 10" transform="translate(363.726 452.996)">
        <path id="Path_242" data-name="Path 242" d="M152.873,153.19v20.228h0l-14.3,14.314a20.076,20.076,0,0,1-5.937-14.271h0a20.231,20.231,0,0,1,20.233-20.271Z" transform="translate(-132.64 -153.19)" fill="#5e6872"/>
        <path id="Path_243" data-name="Path 243" d="M137.026,159.166a20.2,20.2,0,0,1,5.958,14.293H122.73V153.23a20.107,20.107,0,0,1,14.3,5.936Z" transform="translate(-101.511 -153.144)" fill="#199b90"/>
        <path id="Path_244" data-name="Path 244" d="M137.026,163.1h20.255a20.255,20.255,0,0,1-34.551,14.335Z" transform="translate(-115.807 -141.865)" fill="#0f75bc"/>
      </g>
      <rect id="Rectangle_88" data-name="Rectangle 88" width="165.436" height="97.534" transform="translate(536.289 403.536)" fill="#fff"/>
      <rect id="Rectangle_89" data-name="Rectangle 89" width="165.436" height="21.739" transform="translate(536.289 403.536)" fill="#cce0ef"/>
      <path id="Path_245" data-name="Path 245" d="M174.465,192.567H24.7c.233,0-.378-35.573,0-39.147,5.465,2.906,9.593,8.341,15.378,11.218a26.168,26.168,0,0,0,15.465,2.906c4.855-.843,8.721-4.5,13.837-4.824,6.512-.436,10.9,4.853,15.552,8.486,6.512,5.086,14.767,11.276,23.256,12.555a13.9,13.9,0,0,0,13.14-5.813c4.36-5.289,6.6-10.085,13.983-11.1a23.26,23.26,0,0,1,16.831,4.243c5.669,4.418,9.041,11.625,15.552,14.706,2.3,1.075,1.86,1.511,4.39,1.308,1.657,0,.581-2.383,2.064-1.1S174.465,191.114,174.465,192.567Z" transform="translate(521.359 292.46)" fill="rgba(0,102,173,0.2)"/>
      <path id="Path_246" data-name="Path 246" d="M71.1,177.449H43.43L53.459,170.5,55.7,164.08H71.1Z" transform="translate(570.33 312.781)" fill="#ffcebd"/>
      <path id="Path_247" data-name="Path 247" d="M34.191,173.477l-24.041,12,4.8-11.218-1.541-6.626,13.052-8.2Z" transform="translate(703.988 303.936)" fill="#ffcebd"/>
      <path id="Path_248" data-name="Path 248" d="M57.281,162.45l5.465,10.521a3.749,3.749,0,0,1-2.151,5.318L26.089,189.914H10.478a7.526,7.526,0,0,1-2.238-3.633l17.849-8.225,8.052-11.1,7.558,5.289,10.756-3.6Z" transform="translate(680.549 309.674)" fill="#4d5068"/>
      <path id="Path_249" data-name="Path 249" d="M62.5,165.61l1.773,3.081a2.238,2.238,0,0,1-1.076,3.139L29.278,185.4H12.563a5.028,5.028,0,0,1-5.029-5.028H30.79Z" transform="translate(681.226 315.697)" fill="#191c3c"/>
      <path id="Path_250" data-name="Path 250" d="M101.409,168.963v12.323a4.1,4.1,0,0,1-3.983,3.953H58.793L42.63,182.331h0a8.4,8.4,0,0,1,5.378-4.766l16.715-5.26,12.355-8.225,4.767,10.027H95.828Z" transform="translate(542.351 312.781)" fill="#4d5068"/>
      <path id="Path_251" data-name="Path 251" d="M97.017,176.233H48.064a5.813,5.813,0,0,1-5.814-5.813H102.1v.814a5.029,5.029,0,0,1-5.087,5Z" transform="translate(542.76 324.867)" fill="#191c3c"/>
      <path id="Path_252" data-name="Path 252" d="M51.748,112.24l1.628,12a89.4,89.4,0,0,1-.843,28.917l-6.424,33.393a37.453,37.453,0,0,0,2.413,21.971l21.424,45.919L52.5,262.436,22.765,208.815A15.749,15.749,0,0,1,20.9,203L11.37,115.059Z" transform="translate(664.687 213.96)" fill="#0f75bc"/>
      <path id="Path_253" data-name="Path 253" d="M49.861,115.58a444.572,444.572,0,0,0-14.331,60.363c-5.233,32.812-6.512,70.215-10.669,83.236H43.145s12.384-39.118,13.43-68.646A26.153,26.153,0,0,1,61.547,176.2c10.727-14.851,35.029-49.959,34.07-61.874Z" transform="translate(599.772 217.944)" fill="#0f75bc"/>
      <path id="Path_254" data-name="Path 254" d="M23.721,136.046l27.762.145L47.064,63.535H30.552c-2.006,0-4.186-.756-6.1-.552a6.307,6.307,0,0,1,2.907,4.33,40.185,40.185,0,0,1,.233,7.76c0,2.209-6.657,12.09-6.657,14.124S23.721,133.663,23.721,136.046Z" transform="translate(655.359 119.996)" fill="#ffcebd"/>
      <path id="Path_255" data-name="Path 255" d="M48.256,69.26l3.343,54.9-27.762-.145c0-2.383-2.907-44.408-2.907-46.791a20.777,20.777,0,0,1,2.442-5.464C33.023,76.264,43.168,72.079,48.256,69.26Z" transform="translate(655.243 132.028)" fill="#fff"/>
      <rect id="Rectangle_90" data-name="Rectangle 90" width="190.64" height="83.236" transform="translate(577.045 255.432)" fill="#fff"/>
      <path id="Path_256" data-name="Path 256" d="M27.764,83.7c1.919,2.18,6.279,2.587,9.128,2.906,6.366.465,12.965,0,19.36,0V52.63H25.119a47.912,47.912,0,0,1,0,7.527c0,3.284-3.14,11.073-3.169,12.962,0,.61,2.907,1.046,2.907,1.25Z" transform="translate(647.624 100.327)" fill="#ffcebd"/>
      <path id="Path_257" data-name="Path 257" d="M19.971,54.373a7.269,7.269,0,0,1,6.4-2.034,18.755,18.755,0,0,0,6.977,0c2.3-.756,4.215-2.906,6.628-2.732,3.285,0,5.378,4.011,8.721,4.476,2.413.349,5-1.337,7.267-.407s2.907,3.691,2.7,6.074a14.7,14.7,0,0,0,.291,7.033c.814,1.715,2.5,2.906,2.907,4.853.64,3.429-3.576,5.958-4.07,9.445a20.834,20.834,0,0,0,1.192,6.278,4.272,4.272,0,0,1-1.977,4.65h0a4.158,4.158,0,0,1-5.436-.727,12.059,12.059,0,0,1-2.587-5.377,18.713,18.713,0,0,1-1.134-5.115c0-3.2,1.715-6.684,0-9.387-1.163-.639-2.645.407-3.14,1.657s-.436,2.674-.843,3.953-1.628,2.528-2.907,2.18-1.773-2.616-1.512-4.243.349-3.778-1.163-4.447-2.733.233-3.75-.552-.727-2.093-1.047-3.2a5.2,5.2,0,0,0-4.244-3.2c-1.831-.378-3.75-.291-5.552-.843C20.32,61.7,17.791,57.221,19.971,54.373Z" transform="translate(650.068 94.544)" fill="#5e6872"/>
      <path id="Path_258" data-name="Path 258" d="M30.911,64.78,33.643,66.2l1.686,2.906a18.516,18.516,0,0,0,8.343,7.44l2.907,1.308A23.252,23.252,0,0,1,59.486,93.407l5.262,21.623a117.5,117.5,0,0,1,2.006,45.483L61.289,196.2H46.463L45.5,142.9a47.506,47.506,0,0,0-.843-8.37l-.349-1.889-34.651-.174s3.43-43.333,10.93-49.029l-3.11-2.354,6.89-2.906a6.917,6.917,0,0,0,4.1-5.057c.174-.872.349-1.715.552-2.412Z" transform="translate(671.512 123.488)" fill="#444b52"/>
      <path id="Path_259" data-name="Path 259" d="M69.016,67.14l-2.907,1.453L55.034,75.655a30.287,30.287,0,0,0-9.622,9.765c-6.047,9.881-16.86,29.47-16.192,42.025l38.227.61s2.384-29.237-1.4-41.85a15.923,15.923,0,0,1,0-9.533Z" transform="translate(613.814 127.987)" fill="#444b52"/>
      <path id="Path_260" data-name="Path 260" d="M53.468,92.77l-.349-3.429a3.924,3.924,0,0,0-4.07-3.458h0l-.785,1.366-14.1-.233a2.906,2.906,0,0,0-2.907,3.691l.669,2.645a2.907,2.907,0,0,0,2.907,2.267H36a3.982,3.982,0,0,0,3.983,4.04h5.2a4.011,4.011,0,0,0,4.012-4.011V92.422Z" transform="translate(623.664 163.708)" fill="#ffcebd"/>
      <rect id="Rectangle_91" data-name="Rectangle 91" width="6.105" height="61.904" transform="translate(744.894 266.127)" fill="#f5f7f9"/>
      <rect id="Rectangle_92" data-name="Rectangle 92" width="6.105" height="61.904" transform="translate(734.022 266.127)" fill="#f5f7f9"/>
      <rect id="Rectangle_93" data-name="Rectangle 93" width="6.105" height="61.904" transform="translate(723.15 266.127)" fill="#e6e7e8"/>
      <rect id="Rectangle_94" data-name="Rectangle 94" width="6.105" height="61.904" transform="translate(712.248 266.127)" fill="#f5f7f9"/>
      <rect id="Rectangle_95" data-name="Rectangle 95" width="6.105" height="61.904" transform="translate(701.376 266.127)" fill="#f5f7f9"/>
      <rect id="Rectangle_96" data-name="Rectangle 96" width="6.105" height="61.904" transform="translate(690.504 266.127)" fill="#f5f7f9"/>
      <rect id="Rectangle_97" data-name="Rectangle 97" width="6.105" height="61.904" transform="translate(679.632 266.127)" fill="#f5f7f9"/>
      <rect id="Rectangle_98" data-name="Rectangle 98" width="6.105" height="61.904" transform="translate(668.76 266.127)" fill="#f5f7f9"/>
      <rect id="Rectangle_99" data-name="Rectangle 99" width="6.105" height="61.904" transform="translate(657.888 266.127)" fill="#f5f7f9"/>
      <rect id="Rectangle_100" data-name="Rectangle 100" width="6.105" height="61.904" transform="translate(647.016 266.127)" fill="#f5f7f9"/>
      <rect id="Rectangle_101" data-name="Rectangle 101" width="6.105" height="61.904" transform="translate(636.144 266.127)" fill="#f5f7f9"/>
      <rect id="Rectangle_102" data-name="Rectangle 102" width="6.105" height="15.461" transform="translate(744.894 312.54)" fill="#6593b3"/>
      <rect id="Rectangle_103" data-name="Rectangle 103" width="6.105" height="30.952" transform="translate(734.022 297.079)" fill="#6593b3"/>
      <rect id="Rectangle_104" data-name="Rectangle 104" width="6.105" height="30.952" transform="translate(723.15 297.079)" fill="#e03c00"/>
      <rect id="Rectangle_105" data-name="Rectangle 105" width="6.105" height="50.598" transform="translate(712.248 277.403)" fill="#6593b3"/>
      <rect id="Rectangle_106" data-name="Rectangle 106" width="6.105" height="40.252" transform="translate(701.376 287.779)" fill="#6593b3"/>
      <rect id="Rectangle_107" data-name="Rectangle 107" width="6.105" height="14.037" transform="translate(690.504 313.993)" fill="#6593b3"/>
      <rect id="Rectangle_108" data-name="Rectangle 108" width="6.105" height="40.252" transform="translate(679.632 287.779)" fill="#6593b3"/>
      <rect id="Rectangle_109" data-name="Rectangle 109" width="6.105" height="18.6" transform="translate(668.76 309.431)" fill="#6593b3"/>
      <rect id="Rectangle_110" data-name="Rectangle 110" width="6.105" height="30.952" transform="translate(657.888 297.079)" fill="#6593b3"/>
      <rect id="Rectangle_111" data-name="Rectangle 111" width="6.105" height="42.693" transform="translate(647.016 285.338)" fill="#6593b3"/>
      <rect id="Rectangle_112" data-name="Rectangle 112" width="6.105" height="48.477" transform="translate(636.144 279.525)" fill="#6593b3"/>
      <path id="Path_261" data-name="Path 261" d="M9.661,64.78,12.393,66.2l4.68,7.934,8.256,3.72A23.252,23.252,0,0,1,38.236,93.407L43.5,115.029A117.5,117.5,0,0,1,45.5,160.513L40.039,196.2H25.213l-.959-53.3c0-2.906-2.762-18.745-2.762-18.745Z" transform="translate(692.762 123.488)" fill="#444b52"/>
      <path id="Path_262" data-name="Path 262" d="M33.847,110l1.424,19.734h0a5.813,5.813,0,0,1-4.128,4.33h-.523l-11.308.785a5.291,5.291,0,0,1-4.855-2.412l-.814-1.308a6.887,6.887,0,0,1-1.134-3.836V124.88a10,10,0,0,1,3.285-7.411l7.093-6.394V110Z" transform="translate(696.046 209.69)" fill="#ffcebd"/>
      <rect id="Rectangle_113" data-name="Rectangle 113" width="39.651" height="6.103" transform="translate(589.254 269.469)" fill="#199b90"/>
      <rect id="Rectangle_114" data-name="Rectangle 114" width="39.651" height="3.052" transform="translate(589.254 286.558)" fill="#f0f1fe"/>
      <rect id="Rectangle_115" data-name="Rectangle 115" width="39.651" height="3.052" transform="translate(589.254 294.027)" fill="#f0f1fe"/>
      <rect id="Rectangle_116" data-name="Rectangle 116" width="39.651" height="3.052" transform="translate(589.254 301.496)" fill="#f0f1fe"/>
      <rect id="Rectangle_117" data-name="Rectangle 117" width="19.826" height="3.052" transform="translate(609.08 308.966)" fill="#f0f1fe"/>
    </g>
  </g>
</svg>
