<svg id="Logo_Footer" data-name="Logo Footer" xmlns="http://www.w3.org/2000/svg" width="90" height="89.805" viewBox="0 0 90 89.805">
  <g id="Layer_1" data-name="Layer 1" transform="translate(0 0)">
    <path id="Path_86" data-name="Path 86" d="M90,39.968,65.318,38.593l-.306-.841a21.287,21.287,0,0,0-40.027,0l-.3.845L0,39.968l.841-4.124a45.112,45.112,0,0,1,88.31,0ZM45,2.1A42.921,42.921,0,0,0,2.924,36.271L2.632,37.7l20.533-1.137a23.414,23.414,0,0,1,43.67,0L87.363,37.7l-.293-1.424A42.857,42.857,0,0,0,45,2.1Z" transform="translate(0 0.025)" fill="#fff"/>
    <path id="Path_87" data-name="Path 87" d="M45,317.767A45.054,45.054,0,0,1,.842,281.9L0,277.78l24.682,1.383.3.841a21.285,21.285,0,0,0,40.025,0l.306-.843L90,277.78l-.848,4.124A44.99,44.99,0,0,1,45,317.769ZM2.632,280.048l.292,1.435a42.986,42.986,0,0,0,84.146,0l.293-1.435L66.843,281.2a23.416,23.416,0,0,1-43.67,0Z" transform="translate(0 -227.963)" fill="#fff"/>
    <path id="Path_88" data-name="Path 88" d="M130.253,80.687,127.4,79.392l-.767.43,1.26,2.2-1.867,1.04L122,75.981l2.794-1.576a2.879,2.879,0,0,1,4.14.886,2.645,2.645,0,0,1,.027,2.654l3.375,1.573Zm-4.541-2.475.949-.538a.957.957,0,1,0-.943-1.664l-.949.538Z" transform="translate(-100.04 -60.647)" fill="#fff"/>
    <path id="Path_89" data-name="Path 89" d="M201.477,45.64l1.217,8.209-2.117.312-.5-3.384-1.39,2.2-.675.1-1.957-1.7.5,3.371-2.1.31-1.217-8.209.673-.1,4.068,3.683,2.824-4.7Z" transform="translate(-158.457 -37.451)" fill="#fff"/>
    <path id="Path_90" data-name="Path 90" d="M276.671,57.839l-2.142-4.644-.9,3.965-2.079-.464,1.791-7.955,2.081.464-.812,3.6,3.449-3.014,2.419.538-3.6,3.172,2.255,4.883Z" transform="translate(-222.671 -39.995)" fill="#fff"/>
    <path id="Path_91" data-name="Path 91" d="M337.788,73.22l2.4,1.524c2.128,1.316,2.934,3.766,1.586,5.8a4.153,4.153,0,0,1-5.974,1.076L333.4,80.1Zm-.963,6.775a2.126,2.126,0,0,0,3.112-.619,2.038,2.038,0,0,0-.792-3.018l-.6-.373-2.32,3.637Z" transform="translate(-273.388 -60.086)" fill="#fff"/>
    <path id="Path_92" data-name="Path 92" d="M110.425,363.913a2.368,2.368,0,0,1,.515,2.229l-.54-.108a1.879,1.879,0,0,0-.378-1.772,2,2,0,0,0-3.06,2.582,1.9,1.9,0,0,0,1.7.655l.018.549a2.382,2.382,0,0,1-2.124-.868,2.532,2.532,0,0,1,3.869-3.268Z" transform="translate(-86.883 -297.918)" fill="#fff"/>
    <path id="Path_93" data-name="Path 93" d="M137.542,389.019a2.526,2.526,0,1,1-1.886-.48A2.52,2.52,0,0,1,137.542,389.019Zm-.313.434a1.995,1.995,0,1,0,.373,2.747,1.916,1.916,0,0,0-.38-2.747Z" transform="translate(-109.462 -318.839)" fill="#fff"/>
    <path id="Path_94" data-name="Path 94" d="M171.542,406.565l-1.994,4.56-.191-.084L168,406.36l-1.471,3.364L166,409.5l1.98-4.56.191.084,1.359,4.687L171,406.34Z" transform="translate(-136.12 -332.321)" fill="#fff"/>
    <path id="Path_95" data-name="Path 95" d="M203.218,422.091a1.615,1.615,0,0,0,1.163,1.106.863.863,0,0,0,1.138-.59c.1-.436-.137-.637-.617-1.011l-.484-.369c-.594-.454-.945-.877-.806-1.513a1.361,1.361,0,0,1,1.715-.938,1.822,1.822,0,0,1,1.33,1.133l-.481.224a1.35,1.35,0,0,0-.968-.837.77.77,0,0,0-1,.515.613.613,0,0,0,.02.359c.085.208.239.339.578.6l.477.368c.677.538.965.958.833,1.573a1.436,1.436,0,0,1-1.838,1,2.067,2.067,0,0,1-1.544-1.406Z" transform="translate(-166.239 -343.642)" fill="#fff"/>
    <path id="Path_96" data-name="Path 96" d="M236.908,422.74h.58l-.04,2.988a1.371,1.371,0,1,0,2.736.036l.041-2.986.58.009-.04,2.948a1.95,1.95,0,1,1-3.9-.052Z" transform="translate(-194.232 -346.929)" fill="#fff"/>
    <path id="Path_97" data-name="Path 97" d="M271.44,421.122l.572-.1.788,4.3,2.291-.414.094.511-2.862.516Z" transform="translate(-222.581 -345.517)" fill="#fff"/>
    <path id="Path_98" data-name="Path 98" d="M291.792,412.225l-1.634.552-.167-.491L293.811,411l.167.491-1.647.547,1.409,4.141-.549.179Z" transform="translate(-237.792 -337.294)" fill="#fff"/>
    <path id="Path_99" data-name="Path 99" d="M320.64,404.994l.517-.264,2.237,4.352-.517.264Z" transform="translate(-262.925 -332.149)" fill="#fff"/>
    <path id="Path_100" data-name="Path 100" d="M338.2,385.45l2.963,4-.167.124-4.748-1.171,2.185,2.953-.468.342-2.961-4,.167-.124,4.752,1.176-2.191-2.957Z" transform="translate(-274.7 -316.326)" fill="#fff"/>
    <path id="Path_101" data-name="Path 101" d="M366.854,363.089a2.415,2.415,0,0,1,2.066-.861l-.027.554a1.947,1.947,0,0,0-2.111,2.09,1.906,1.906,0,0,0,.721,1.331,1.953,1.953,0,0,0,2.824-.179,1.874,1.874,0,0,0,.4-1.808l-.5-.43-1.1,1.262-.394-.339,1.469-1.7.992.85a2.416,2.416,0,0,1,.1,1.307,2.588,2.588,0,0,1-5,.457,2.52,2.52,0,0,1,.56-2.532Z" transform="translate(-300.254 -297.261)" fill="#fff"/>
    <path id="Path_102" data-name="Path 102" d="M369.88,245.16l22.142,1.234-22.142,1.236Z" transform="translate(-303.302 -201.193)" fill="#fff"/>
    <path id="Path_103" data-name="Path 103" d="M29.222,247.629,7.08,246.394l22.142-1.234Z" transform="translate(-5.806 -201.193)" fill="#fff"/>
    <path id="Path_104" data-name="Path 104" d="M186.75,239.851h6.208V225.08H186.75Zm4.122-12.5h1.067v10.221h-1.067Z" transform="translate(-153.135 -184.714)" fill="#fff"/>
    <path id="Path_105" data-name="Path 105" d="M278.73,196.63V216.5h6.208V196.63Zm5.188,17.6h-1.066V198.9h1.066Z" transform="translate(-228.559 -161.365)" fill="#fff"/>
    <path id="Path_106" data-name="Path 106" d="M232.74,228.181h6.208V210.86H232.74Zm4.122-15.047h1.067v12.771h-1.067Z" transform="translate(-190.847 -173.044)" fill="#fff"/>
  </g>
</svg>
