<svg id="Logo_Navigation" data-name="Logo Navigation" xmlns="http://www.w3.org/2000/svg" width="77" height="77.133" viewBox="0 0 77 77.133">
  <g id="Layer_1" data-name="Layer 1" transform="translate(0 0)">
    <path id="Path_23" data-name="Path 23" d="M76.667,30.915a38.794,38.794,0,0,0-75.922,0L.24,33.354l19.9-1.108.059-.161a19.685,19.685,0,0,1,37.006,0l.059.161,19.9,1.108Z" transform="translate(-0.203 -0.119)" fill="#fff"/>
    <path id="Path_24" data-name="Path 24" d="M57.266,287.443l-.059.161a19.685,19.685,0,0,1-37.006,0l-.059-.161L.24,286.33l.5,2.441a38.794,38.794,0,0,0,75.93,0l.5-2.441Z" transform="translate(-0.203 -242.452)" fill="#fff"/>
    <path id="Path_25" data-name="Path 25" d="M125.513,76,123,74.86l-.675.386,1.1,1.938-1.632.92-3.551-6.243,2.464-1.38a2.531,2.531,0,0,1,3.642.779,2.327,2.327,0,0,1,.017,2.327l2.971,1.38Zm-4-2.178.835-.471a.844.844,0,1,0-.833-1.467l-.836.471Z" transform="translate(-100.031 -59.321)" fill="#5e6771"/>
    <path id="Path_26" data-name="Path 26" d="M198.791,40.9l1.078,7.224-1.848.273-.444-2.977-1.237,1.935-.594.087-1.722-1.493.44,2.966-1.857.279-1.078-7.222.594-.087,3.582,3.239,2.486-4.139Z" transform="translate(-162.034 -34.648)" fill="#5e6771"/>
    <path id="Path_27" data-name="Path 27" d="M276.7,52.1l-1.888-4.087-.785,3.489-1.833-.409,1.577-7,1.833.409-.715,3.17,3.037-2.652,2.13.475-3.168,2.79,1.985,4.293Z" transform="translate(-230.273 -37.349)" fill="#5e6771"/>
    <path id="Path_28" data-name="Path 28" d="M339.714,69.28l2.119,1.337a3.576,3.576,0,0,1,1.4,5.105,3.661,3.661,0,0,1-5.259.947l-2.119-1.341Zm-.847,5.967a1.869,1.869,0,0,0,2.74-.546,1.793,1.793,0,0,0-.7-2.655l-.525-.333-2.048,3.2Z" transform="translate(-284.129 -58.677)" fill="#5e6771"/>
    <path id="Path_29" data-name="Path 29" d="M105.681,368.308a2.089,2.089,0,0,1,.453,1.962l-.476-.1a1.656,1.656,0,0,0-.336-1.558,1.769,1.769,0,0,0-2.447-.159,1.75,1.75,0,0,0-.24,2.429,1.673,1.673,0,0,0,1.492.579l.015.483a2.1,2.1,0,0,1-1.871-.767,2.217,2.217,0,0,1,.257-3.135,2.242,2.242,0,0,1,3.15.256Z" transform="translate(-86.072 -311.195)" fill="#5e6771"/>
    <path id="Path_30" data-name="Path 30" d="M133.632,394.25a2.216,2.216,0,0,1,.458,3.109,2.24,2.24,0,0,1-3.122.459,2.227,2.227,0,1,1,2.665-3.568Zm-.276.382a1.755,1.755,0,1,0,.328,2.424,1.681,1.681,0,0,0-.328-2.424Z" transform="translate(-110.034 -333.452)" fill="#5e6771"/>
    <path id="Path_31" data-name="Path 31" d="M168.474,412.135l-1.756,4.012-.168-.074-1.2-4.118-1.294,2.959-.462-.2,1.754-4.012.168.074,1.2,4.124,1.3-2.965Z" transform="translate(-138.406 -347.756)" fill="#5e6771"/>
    <path id="Path_32" data-name="Path 32" d="M201.783,427.847a1.412,1.412,0,0,0,1.023.972.76.76,0,0,0,1-.518c.083-.383-.12-.56-.545-.891l-.427-.325c-.524-.4-.832-.767-.711-1.332a1.2,1.2,0,0,1,1.512-.823,1.6,1.6,0,0,1,1.17,1l-.424.2a1.187,1.187,0,0,0-.853-.736.673.673,0,0,0-.881.452.53.53,0,0,0,.017.323c.074.182.209.3.508.529l.42.323c.6.46.85.842.733,1.38a1.26,1.26,0,0,1-1.617.88,1.819,1.819,0,0,1-1.361-1.237Z" transform="translate(-170.342 -359.774)" fill="#5e6771"/>
    <path id="Path_33" data-name="Path 33" d="M236.55,429l.511.008-.037,2.628a1.207,1.207,0,1,0,2.41.032l.037-2.628.51.008-.035,2.6a1.715,1.715,0,1,1-3.428-.048Z" transform="translate(-200.094 -363.25)" fill="#5e6771"/>
    <path id="Path_34" data-name="Path 34" d="M272.09,427.33l.5-.09.69,3.787,2.017-.365.082.449-2.521.46Z" transform="translate(-230.188 -361.76)" fill="#5e6771"/>
    <path id="Path_35" data-name="Path 35" d="M292.694,417.98l-1.44.486-.154-.432,3.373-1.144.154.432-1.446.488,1.243,3.644-.485.164Z" transform="translate(-246.271 -352.997)" fill="#5e6771"/>
    <path id="Path_36" data-name="Path 36" d="M322.72,410.721l.454-.232,1.971,3.833-.462.232Z" transform="translate(-273.021 -347.578)" fill="#5e6771"/>
    <path id="Path_37" data-name="Path 37" d="M340.273,390.63l2.609,3.526-.154.109-4.181-1.03,1.923,2.6-.411.307-2.609-3.526.154-.107,4.186,1.035-1.928-2.606Z" transform="translate(-285.483 -330.763)" fill="#5e6771"/>
    <path id="Path_38" data-name="Path 38" d="M370.25,367.492a2.124,2.124,0,0,1,1.819-.757l-.023.487a1.656,1.656,0,0,0-1.437.575,1.681,1.681,0,0,0,.213,2.436,1.721,1.721,0,0,0,2.487-.161,1.649,1.649,0,0,0,.353-1.59l-.442-.377-.961,1.116-.348-.307,1.294-1.5.875.748a2.121,2.121,0,0,1,.088,1.15,2.26,2.26,0,1,1-3.915-1.824Z" transform="translate(-312.734 -310.524)" fill="#5e6771"/>
    <path id="Path_39" data-name="Path 39" d="M373.4,246.24l19.5,1.087-19.5,1.087Z" transform="translate(-315.896 -208.508)" fill="#fff"/>
    <path id="Path_40" data-name="Path 40" d="M19.5,248.414,0,247.327l19.5-1.087Z" transform="translate(0 -208.508)" fill="#fff"/>
    <path id="Path_41" data-name="Path 41" d="M184.92,238.576h5.467v-13H184.92Zm3.63-10.993h.939v8.993h-.939Z" transform="translate(-156.442 -191.016)" fill="#fff"/>
    <path id="Path_42" data-name="Path 42" d="M279.58,196.3v17.484h5.467V196.308Zm4.569,15.484h-.939V198.293h.939Z" transform="translate(-236.525 -166.225)" fill="#fff"/>
    <path id="Path_43" data-name="Path 43" d="M232.25,226.18h5.467V210.94H232.25Zm3.63-13.238h.939v11.237h-.939Z" transform="translate(-196.484 -178.62)" fill="#fff"/>
  </g>
</svg>
