<svg xmlns="http://www.w3.org/2000/svg" width="55.347" height="50.705" viewBox="0 0 55.347 50.705">
  <g id="Icon_3" data-name="Icon 3" transform="translate(-0.756 -5.843)">
    <g id="Group_382" data-name="Group 382" transform="translate(0.756 5.843)">
      <path id="Path_488" data-name="Path 488" d="M47.752,35.781l7.909-14.92H2.606l7.911,14.921Z" transform="translate(-1.458 -11.541)" fill="#0f75bc"/>
      <rect id="Rectangle_312" data-name="Rectangle 312" width="15.051" height="5.859" transform="translate(20.151)" fill="#26cec0"/>
      <path id="Path_489" data-name="Path 489" d="M49.62,41.517a1.728,1.728,0,0,1-1.528.92H36.567a8.316,8.316,0,0,1-16.271,0H8.774a1.729,1.729,0,0,1-1.529-.92L.756,29.278V65.44H52.312A3.8,3.8,0,0,0,56.1,61.647V29.284Z" transform="translate(-0.756 -14.735)" fill="#0f75bc"/>
      <path id="Path_490" data-name="Path 490" d="M42.577,53.611a4.866,4.866,0,0,0,4.539-3.13h-9.08A4.87,4.87,0,0,0,42.577,53.611Z" transform="translate(-14.901 -22.779)" fill="#26cec0"/>
    </g>
  </g>
</svg>
