<svg xmlns="http://www.w3.org/2000/svg" width="50.7" height="49.393" viewBox="0 0 50.7 49.393">
  <g id="Icon_2" data-name="Icon 2" transform="translate(-0.507 -2.474)">
    <g id="Group_380" data-name="Group 380" transform="translate(0.507 2.474)">
      <path id="Path_484" data-name="Path 484" d="M48.229,8.946V51.867L71.958,45.4V2.474Z" transform="translate(-21.257 -2.474)" fill="#0f75bc"/>
      <path id="Path_485" data-name="Path 485" d="M.507,45.4l23.731,6.471V8.947L.507,2.476Z" transform="translate(-0.507 -2.475)" fill="#26cec0"/>
    </g>
    <g id="Group_381" data-name="Group 381" transform="translate(4.01 10.775)">
      <path id="Path_486" data-name="Path 486" d="M56.408,20.735l13.039-3.517a1.62,1.62,0,0,1,.844,3.128L57.255,23.864a1.621,1.621,0,0,1-.847-3.129Zm0,9.467,13.039-3.513a1.62,1.62,0,0,1,.844,3.129L57.255,33.331a1.657,1.657,0,0,1-.424.057,1.621,1.621,0,0,1-.423-3.185Zm0,8.39,13.039-3.516a1.62,1.62,0,0,1,.844,3.128L57.255,41.722a1.621,1.621,0,0,1-.847-3.129ZM61.231,49l-3.968,1.1a1.59,1.59,0,0,1-.435.059,1.62,1.62,0,0,1-.433-3.181l3.968-1.1A1.62,1.62,0,1,1,61.231,49ZM70.286,46.6l-2.666.71a1.644,1.644,0,0,1-.416.055,1.621,1.621,0,0,1-.417-3.188l2.665-.709a1.62,1.62,0,1,1,.834,3.132Z" transform="translate(-27.796 -17.161)" fill="#26cec0"/>
      <path id="Path_487" data-name="Path 487" d="M22.949,46.865a1.622,1.622,0,0,1-1.566,1.206,1.568,1.568,0,0,1-.415-.055L7.913,44.556a1.62,1.62,0,0,1,.827-3.133L21.8,44.884A1.62,1.62,0,0,1,22.949,46.865ZM6.76,34.039a1.621,1.621,0,0,1,1.982-1.151L21.8,36.351a1.62,1.62,0,1,1-.831,3.132L7.91,36.02A1.62,1.62,0,0,1,6.76,34.039Z" transform="translate(-6.706 -23.976)" fill="#0f75bc"/>
    </g>
  </g>
</svg>
