<svg id="Layer_2" data-name="Layer 2" xmlns="http://www.w3.org/2000/svg" width="379" height="315.801" viewBox="0 0 379 315.801">
  <g id="Layer_1" data-name="Layer 1">
    <path id="Path_147" data-name="Path 147" d="M154.04,58.58l-12.393-5.63-3.32,1.879,5.427,9.585-8.035,4.546L118.24,38.123,130.368,31.3c6.867-3.887,14.3-2.546,17.927,3.857a11.543,11.543,0,0,1,.083,11.509L163,53.489ZM134.332,47.821l4.108-2.326a3.962,3.962,0,0,0,1.63-5.736,3.926,3.926,0,0,0-5.73-1.515l-4.116,2.326Z" transform="translate(-28.614 -7.058)" fill="#fff"/>
    <path id="Path_148" data-name="Path 148" d="M227.277,0l5.306,35.7-9.1,1.349L221.3,22.336l-6.019,9.577-2.926.432L203.817,25l2.168,14.661-9.141,1.349L191.56,5.3l2.926-.432,17.631,16.01L224.351.424Z" transform="translate(-46.358)" fill="#fff"/>
    <path id="Path_149" data-name="Path 149" d="M294.369,42.748l-9.293-20.192L281.21,39.8l-9.02-2.023L279.952,3.19l9.02,2.015-3.517,15.676L300.4,7.774l10.483,2.349-15.592,13.79,9.771,21.215Z" transform="translate(-65.87 -0.773)" fill="#fff"/>
    <path id="Path_150" data-name="Path 150" d="M354.868,28.38l10.43,6.63c9.217,5.728,12.712,16.343,6.867,25.231-5.48,8.925-16.82,10.608-25.886,4.682l-10.43-6.63ZM350.7,57.861c4.9,3.114,10.347,2.273,13.485-2.69,3.229-5.076,1.516-9.979-3.426-13.123L358.173,40.4l-10.081,15.82Z" transform="translate(-81.276 -6.877)" fill="#fff"/>
    <path id="Path_151" data-name="Path 151" d="M121.137,330.514a10.347,10.347,0,0,1,2.229,9.7l-2.342-.47a8.211,8.211,0,0,0-1.652-7.7,8.678,8.678,0,0,0-13.227,11.221,8.219,8.219,0,0,0,7.345,2.864l.076,2.387a10.3,10.3,0,0,1-9.21-3.788,11,11,0,0,1,16.768-14.23Z" transform="translate(-24.621 -79.147)" fill="#fff"/>
    <path id="Path_152" data-name="Path 152" d="M147.624,355.1a10.956,10.956,0,1,1-8.176-2.075A10.983,10.983,0,0,1,147.624,355.1Zm-1.357,1.887a8.668,8.668,0,1,0,1.615,11.941,8.332,8.332,0,0,0-1.615-11.941Z" transform="translate(-31.476 -85.517)" fill="#fff"/>
    <path id="Path_153" data-name="Path 153" d="M187.591,376.894l-8.641,19.828-.826-.364-5.882-20.344-6.367,14.623-2.274-1,8.634-19.828.826.356,5.89,20.389,6.382-14.653Z" transform="translate(-39.591 -89.613)" fill="#fff"/>
    <path id="Path_154" data-name="Path 154" d="M203.482,398.591c1.031,2.69,2.729,4.311,5.033,4.8,2.486.538,4.48-.455,4.935-2.561.409-1.894-.591-2.766-2.683-4.4l-2.1-1.606c-2.577-1.97-4.093-3.788-3.5-6.584.7-3.243,4.04-4.8,7.444-4.069a7.882,7.882,0,0,1,5.761,4.925l-2.077.962a5.851,5.851,0,0,0-4.2-3.637c-2.047-.439-3.926.311-4.336,2.273a2.628,2.628,0,0,0,.083,1.6c.364.9,1.031,1.515,2.5,2.614l2.069,1.6c2.933,2.311,4.184,4.16,3.608,6.819-.758,3.432-4.086,5.182-7.959,4.349a8.981,8.981,0,0,1-6.7-6.114Z" transform="translate(-48.729 -93.05)" fill="#fff"/>
    <path id="Path_155" data-name="Path 155" d="M236.679,388.11l2.517.038-.182,12.987c-.053,4.122,2.365,6.349,5.882,6.395s5.928-2.114,5.981-6.236l.182-12.987,2.509.038-.174,12.82c-.076,5.577-3.661,8.751-8.535,8.683s-8.429-3.334-8.338-8.91Z" transform="translate(-57.237 -94.047)" fill="#fff"/>
    <path id="Path_156" data-name="Path 156" d="M272.09,386.787l2.471-.447,3.4,18.684,9.93-1.8.4,2.22-12.408,2.273Z" transform="translate(-65.846 -93.619)" fill="#fff"/>
    <path id="Path_157" data-name="Path 157" d="M298.945,381.349l-7.087,2.4-.758-2.137L307.7,376l.758,2.137-7.133,2.409,6.117,18.01-2.388.8Z" transform="translate(-70.446 -91.113)" fill="#fff"/>
    <path id="Path_158" data-name="Path 158" d="M322.72,370.724l2.236-1.144,9.7,18.942-2.274,1.152Z" transform="translate(-78.098 -89.557)" fill="#fff"/>
    <path id="Path_159" data-name="Path 159" d="M351.344,349.73l12.841,17.427-.758.53-20.58-5.084,9.467,12.835-2.024,1.515-12.84-17.427.758-.538,20.6,5.122-9.49-12.881Z" transform="translate(-81.663 -84.747)" fill="#fff"/>
    <path id="Path_160" data-name="Path 160" d="M372.556,329.61a10.432,10.432,0,0,1,8.952-3.743l-.114,2.409a8.135,8.135,0,0,0-7.072,2.841,8.332,8.332,0,0,0,1.046,12.032,8.439,8.439,0,0,0,12.242-.758,8.18,8.18,0,0,0,1.736-7.857l-2.176-1.864-4.73,5.493-1.713-1.47,6.367-7.4,4.305,3.7a10.49,10.49,0,0,1,.432,5.675,11.175,11.175,0,0,1-21.59,1.947,10.99,10.99,0,0,1,2.321-10.964Z" transform="translate(-89.458 -78.955)" fill="#fff"/>
    <path id="Path_161" data-name="Path 161" d="M373.4,205.34l95.963,5.372L373.4,216.084Z" transform="translate(-90.363 -49.758)" fill="#fff"/>
    <path id="Path_162" data-name="Path 162" d="M95.963,216.084,0,210.712l95.963-5.372Z" transform="translate(0 -49.758)" fill="#fff"/>
    <path id="Path_163" data-name="Path 163" d="M184.92,248.908h26.909V184.68H184.92Zm17.866-54.333h4.624v44.445h-4.624Z" transform="translate(-44.751 -44.752)" fill="#fff"/>
    <path id="Path_164" data-name="Path 164" d="M279.58,155.4v86.375h26.909V155.4Zm22.49,76.526h-4.624V165.288h4.624Z" transform="translate(-67.658 -37.657)" fill="#fff"/>
    <path id="Path_165" data-name="Path 165" d="M232.25,245.351h26.909V170H232.25Zm17.866-65.433h4.624v55.545h-4.624Z" transform="translate(-56.205 -41.195)" fill="#fff"/>
  </g>
</svg>
